<?xml version="1.0" encoding="UTF-8" standalone="no"?><svg xmlns="http://www.w3.org/2000/svg" xmlns:xlink="http://www.w3.org/1999/xlink" clip-rule="evenodd" stroke-miterlimit="10" viewBox="0 0 1920 1080"><desc>SVG generated by Keynote</desc><defs><radialGradient id="gradSh1.3" cx="0.0" cy="0.0" r="1.0" fx="0.0" fy="0.0" gradientUnits="userSpaceOnUse" gradientTransform="matrix(12.49, 0.00, 0.00, -12.49, 398.8, 532.9)"><stop offset="0.00000" stop-color="#FFFFFF"></stop><stop offset="0.05792" stop-color="#FEFEFE"></stop><stop offset="1.00000" stop-color="#000000"></stop></radialGradient><radialGradient id="gradSh1.4" cx="0.0" cy="0.0" r="1.0" fx="0.0" fy="0.0" gradientUnits="userSpaceOnUse" gradientTransform="matrix(12.49, 0.00, 0.00, -12.49, 398.8, 432.9)"><stop offset="0.00000" stop-color="#FFFFFF"></stop><stop offset="0.05792" stop-color="#FEFEFE"></stop><stop offset="1.00000" stop-color="#000000"></stop></radialGradient><radialGradient id="gradSh1.5" cx="0.0" cy="0.0" r="1.0" fx="0.0" fy="0.0" gradientUnits="userSpaceOnUse" gradientTransform="matrix(12.49, 0.00, 0.00, -12.49, 398.8, 332.9)"><stop offset="0.00000" stop-color="#FFFFFF"></stop><stop offset="0.05792" stop-color="#FEFEFE"></stop><stop offset="1.00000" stop-color="#000000"></stop></radialGradient></defs><g transform="matrix(1.00, 0.00, -0.00, -1.00, 0.0, 1080.0)"><g><clipPath id="clip0x7f9bd16eeac0"><path d="M 0.0 1080.0 L 1920.0 1080.0 L 1920.0 0.0 L 0.0 0.0 Z M 0.0 1080.0 "></path></clipPath><g clip-path="url(#clip0x7f9bd16eeac0)"><image xlink:href="../../6E95A4D7-63D8-4C29-9945-24DEBC65972F/assets/503BF3AA8D3AB97D721D9B439922F546.jpeg" width="2048.00" height="1536.00" transform="matrix(0.94, 0.00, -0.00, -0.70, 0.0, 1080.0)"></image></g></g><image xlink:href="../../6E95A4D7-63D8-4C29-9945-24DEBC65972F/assets/AE2FE6623AC396ABF241F3681DFF2AC0.png" width="684.00" height="97.00" transform="matrix(1.00, 0.00, -0.00, -1.00, 618.0, 946.0)"></image><text xml:space="preserve" font-family="HoeflerText-Regular,Hoefler Text" font-size="94.0" fill="#BCAF8F" transform="matrix(1.00, 0.00, -0.00, -1.00, 619.2, 875.6)">W</text><text xml:space="preserve" font-family="HoeflerText-Regular,Hoefler Text" font-size="94.0" fill="#BCAF8F" transform="matrix(1.00, 0.00, -0.00, -1.00, 724.9, 875.6)">h</text><text xml:space="preserve" font-family="HoeflerText-Regular,Hoefler Text" font-size="94.0" fill="#BCAF8F" transform="matrix(1.00, 0.00, -0.00, -1.00, 777.0, 875.6)">a</text><text xml:space="preserve" font-family="HoeflerText-Regular,Hoefler Text" font-size="94.0" fill="#BCAF8F" transform="matrix(1.00, 0.00, -0.00, -1.00, 818.9, 875.6)">t</text><text xml:space="preserve" font-family="HoeflerText-Regular,Hoefler Text" font-size="94.0" fill="#BCAF8F" transform="matrix(1.00, 0.00, -0.00, -1.00, 853.6, 875.6)">’</text><text xml:space="preserve" font-family="HoeflerText-Regular,Hoefler Text" font-size="94.0" fill="#BCAF8F" transform="matrix(1.00, 0.00, -0.00, -1.00, 869.0, 875.6)">s</text><text xml:space="preserve" font-family="HoeflerText-Regular,Hoefler Text" font-size="94.0" fill="#BCAF8F" transform="matrix(1.00, 0.00, -0.00, -1.00, 904.9, 875.6)"> </text><text xml:space="preserve" font-family="HoeflerText-Regular,Hoefler Text" font-size="94.0" fill="#BCAF8F" transform="matrix(1.00, 0.00, -0.00, -1.00, 928.4, 875.6)">m</text><text xml:space="preserve" font-family="HoeflerText-Regular,Hoefler Text" font-size="94.0" fill="#BCAF8F" transform="matrix(1.00, 0.00, -0.00, -1.00, 1006.2, 875.6)">y</text><text xml:space="preserve" font-family="HoeflerText-Regular,Hoefler Text" font-size="94.0" fill="#BCAF8F" transform="matrix(1.00, 0.00, -0.00, -1.00, 1049.2, 875.6)"> </text><text xml:space="preserve" font-family="HoeflerText-Regular,Hoefler Text" font-size="94.0" fill="#BCAF8F" transform="matrix(1.00, 0.00, -0.00, -1.00, 1072.7, 875.6)">m</text><text xml:space="preserve" font-family="HoeflerText-Regular,Hoefler Text" font-size="94.0" fill="#BCAF8F" transform="matrix(1.00, 0.00, -0.00, -1.00, 1150.4, 875.6)">a</text><text xml:space="preserve" font-family="HoeflerText-Regular,Hoefler Text" font-size="94.0" fill="#BCAF8F" transform="matrix(1.00, 0.00, -0.00, -1.00, 1192.4, 875.6)">j</text><text xml:space="preserve" font-family="HoeflerText-Regular,Hoefler Text" font-size="94.0" fill="#BCAF8F" transform="matrix(1.00, 0.00, -0.00, -1.00, 1215.4, 875.6)">o</text><text xml:space="preserve" font-family="HoeflerText-Regular,Hoefler Text" font-size="94.0" fill="#BCAF8F" transform="matrix(1.00, 0.00, -0.00, -1.00, 1265.8, 875.6)">r</text><image xlink:href="../../6E95A4D7-63D8-4C29-9945-24DEBC65972F/assets/A7A5AF275BA408A5CFD312E049F962E5.png" width="26.00" height="26.00" transform="matrix(1.00, 0.00, -0.00, -1.00, 386.0, 546.0)"></image><g><clipPath id="clip0x7f9bc93035f0"><path d="M 386.2 520.4 L 411.3 520.4 L 411.3 545.4 L 386.2 545.4 Z M 386.2 520.4 "></path></clipPath><g clip-path="url(#clip0x7f9bc93035f0)"><g><g><clipPath id="clip0x7f9bd15301d0"><path d="M 398.4 545.2 L 395.4 542.3 C 395.2 542.1 394.8 541.9 394.5 541.9 L 394.5 541.9 L 390.3 541.9 C 390.0 541.9 389.8 541.7 389.8 541.4 L 389.8 541.4 L 389.8 537.2 C 389.8 536.9 389.6 536.5 389.4 536.3 L 389.4 536.3 L 386.5 533.3 C 386.2 533.1 386.2 532.8 386.5 532.5 L 386.5 532.5 L 389.4 529.6 C 389.6 529.4 389.8 529.0 389.8 528.7 L 389.8 528.7 L 389.8 524.5 C 389.8 524.2 390.0 524.0 390.3 524.0 L 390.3 524.0 L 394.5 524.0 C 394.8 524.0 395.2 523.8 395.4 523.6 L 395.4 523.6 L 398.4 520.6 C 398.6 520.4 399.0 520.4 399.2 520.6 L 399.2 520.6 L 402.1 523.6 C 402.3 523.8 402.7 524.0 403.0 524.0 L 403.0 524.0 L 407.2 524.0 C 407.5 524.0 407.8 524.2 407.8 524.5 L 407.8 524.5 L 407.8 528.7 C 407.8 529.0 407.9 529.4 408.1 529.6 L 408.1 529.6 L 411.1 532.5 C 411.3 532.8 411.3 533.1 411.1 533.3 L 411.1 533.3 L 408.1 536.3 C 407.9 536.5 407.8 536.9 407.8 537.2 L 407.8 537.2 L 407.8 541.4 C 407.8 541.7 407.5 541.9 407.2 541.9 L 407.2 541.9 L 403.0 541.9 C 402.7 541.9 402.3 542.1 402.1 542.3 L 402.1 542.3 L 399.2 545.2 C 399.1 545.4 398.9 545.4 398.8 545.4 L 398.8 545.4 C 398.6 545.4 398.5 545.4 398.4 545.2 "></path></clipPath><g clip-path="url(#clip0x7f9bd15301d0)"><g><clipPath id="clip0x7f9bc93f7160"><path d="M 384.0 517.0 L 414.0 517.0 L 414.0 549.0 L 384.0 549.0 Z M 384.0 517.0 "></path></clipPath><g clip-path="url(#clip0x7f9bc93f7160)"><path d="M 384.0 517.0 L 414.0 517.0 L 414.0 549.0 L 384.0 549.0 Z M 384.0 517.0 " fill="url(#gradSh1.3)"></path></g></g></g></g></g></g></g><image xlink:href="../../6E95A4D7-63D8-4C29-9945-24DEBC65972F/assets/5A95134AA7102F47FB513AD7E28EEE2A.png" width="885.00" height="56.00" transform="matrix(1.00, 0.00, -0.00, -1.00, 429.0, 555.0)"></image><text xml:space="preserve" font-family="HoeflerText-Italic,Hoefler Text" font-style="italic" font-size="50.0" fill="#86837F" transform="matrix(1.00, 0.00, -0.00, -1.00, 432.1, 516.9)">I</text><text xml:space="preserve" font-family="HoeflerText-Italic,Hoefler Text" font-style="italic" font-size="50.0" fill="#86837F" transform="matrix(1.00, 0.00, -0.00, -1.00, 453.6, 516.9)"> </text><text xml:space="preserve" font-family="HoeflerText-Italic,Hoefler Text" font-style="italic" font-size="50.0" fill="#86837F" transform="matrix(1.00, 0.00, -0.00, -1.00, 463.9, 516.9)">w</text><text xml:space="preserve" font-family="HoeflerText-Italic,Hoefler Text" font-style="italic" font-size="50.0" fill="#86837F" transform="matrix(1.00, 0.00, -0.00, -1.00, 501.7, 516.9)">a</text><text xml:space="preserve" font-family="HoeflerText-Italic,Hoefler Text" font-style="italic" font-size="50.0" fill="#86837F" transform="matrix(1.00, 0.00, -0.00, -1.00, 524.9, 516.9)">s</text><text xml:space="preserve" font-family="HoeflerText-Italic,Hoefler Text" font-style="italic" font-size="50.0" fill="#86837F" transform="matrix(1.00, 0.00, -0.00, -1.00, 539.7, 516.9)"> </text><text xml:space="preserve" font-family="HoeflerText-Italic,Hoefler Text" font-style="italic" font-size="50.0" fill="#86837F" transform="matrix(1.00, 0.00, -0.00, -1.00, 549.9, 516.9)">m</text><text xml:space="preserve" font-family="HoeflerText-Italic,Hoefler Text" font-style="italic" font-size="50.0" fill="#86837F" transform="matrix(1.00, 0.00, -0.00, -1.00, 586.0, 516.9)">a</text><text xml:space="preserve" font-family="HoeflerText-Italic,Hoefler Text" font-style="italic" font-size="50.0" fill="#86837F" transform="matrix(1.00, 0.00, -0.00, -1.00, 609.2, 516.9)">j</text><text xml:space="preserve" font-family="HoeflerText-Italic,Hoefler Text" font-style="italic" font-size="50.0" fill="#86837F" transform="matrix(1.00, 0.00, -0.00, -1.00, 625.0, 516.9)">o</text><text xml:space="preserve" font-family="HoeflerText-Italic,Hoefler Text" font-style="italic" font-size="50.0" fill="#86837F" transform="matrix(1.00, 0.00, -0.00, -1.00, 645.8, 516.9)">r</text><text xml:space="preserve" font-family="HoeflerText-Italic,Hoefler Text" font-style="italic" font-size="50.0" fill="#86837F" transform="matrix(1.00, 0.00, -0.00, -1.00, 664.9, 516.9)">e</text><text xml:space="preserve" font-family="HoeflerText-Italic,Hoefler Text" font-style="italic" font-size="50.0" fill="#86837F" transform="matrix(1.00, 0.00, -0.00, -1.00, 682.6, 516.9)">d</text><text xml:space="preserve" font-family="HoeflerText-Italic,Hoefler Text" font-style="italic" font-size="50.0" fill="#86837F" transform="matrix(1.00, 0.00, -0.00, -1.00, 706.5, 516.9)"> </text><text xml:space="preserve" font-family="HoeflerText-Italic,Hoefler Text" font-style="italic" font-size="50.0" fill="#86837F" transform="matrix(1.00, 0.00, -0.00, -1.00, 716.8, 516.9)">i</text><text xml:space="preserve" font-family="HoeflerText-Italic,Hoefler Text" font-style="italic" font-size="50.0" fill="#86837F" transform="matrix(1.00, 0.00, -0.00, -1.00, 731.1, 516.9)">n</text><text xml:space="preserve" font-family="HoeflerText-Italic,Hoefler Text" font-style="italic" font-size="50.0" fill="#86837F" transform="matrix(1.00, 0.00, -0.00, -1.00, 755.1, 516.9)"> </text><text xml:space="preserve" font-family="HoeflerText-Italic,Hoefler Text" font-style="italic" font-size="50.0" fill="#86837F" transform="matrix(1.00, 0.00, -0.00, -1.00, 765.3, 516.9)">M</text><text xml:space="preserve" font-family="HoeflerText-Italic,Hoefler Text" font-style="italic" font-size="50.0" fill="#86837F" transform="matrix(1.00, 0.00, -0.00, -1.00, 811.7, 516.9)">a</text><text xml:space="preserve" font-family="HoeflerText-Italic,Hoefler Text" font-style="italic" font-size="50.0" fill="#86837F" transform="matrix(1.00, 0.00, -0.00, -1.00, 834.9, 516.9)">r</text><text xml:space="preserve" font-family="HoeflerText-Italic,Hoefler Text" font-style="italic" font-size="50.0" fill="#86837F" transform="matrix(1.00, 0.00, -0.00, -1.00, 854.0, 516.9)">k</text><text xml:space="preserve" font-family="HoeflerText-Italic,Hoefler Text" font-style="italic" font-size="50.0" fill="#86837F" transform="matrix(1.00, 0.00, -0.00, -1.00, 877.5, 516.9)">e</text><text xml:space="preserve" font-family="HoeflerText-Italic,Hoefler Text" font-style="italic" font-size="50.0" fill="#86837F" transform="matrix(1.00, 0.00, -0.00, -1.00, 895.2, 516.9)">t</text><text xml:space="preserve" font-family="HoeflerText-Italic,Hoefler Text" font-style="italic" font-size="50.0" fill="#86837F" transform="matrix(1.00, 0.00, -0.00, -1.00, 911.0, 516.9)">i</text><text xml:space="preserve" font-family="HoeflerText-Italic,Hoefler Text" font-style="italic" font-size="50.0" fill="#86837F" transform="matrix(1.00, 0.00, -0.00, -1.00, 925.3, 516.9)">n</text><text xml:space="preserve" font-family="HoeflerText-Italic,Hoefler Text" font-style="italic" font-size="50.0" fill="#86837F" transform="matrix(1.00, 0.00, -0.00, -1.00, 949.3, 516.9)">g</text><text xml:space="preserve" font-family="HoeflerText-Italic,Hoefler Text" font-style="italic" font-size="50.0" fill="#86837F" transform="matrix(1.00, 0.00, -0.00, -1.00, 970.1, 516.9)"> </text><text xml:space="preserve" font-family="HoeflerText-Italic,Hoefler Text" font-style="italic" font-size="50.0" fill="#86837F" transform="matrix(1.00, 0.00, -0.00, -1.00, 980.3, 516.9)">b</text><text xml:space="preserve" font-family="HoeflerText-Italic,Hoefler Text" font-style="italic" font-size="50.0" fill="#86837F" transform="matrix(1.00, 0.00, -0.00, -1.00, 1002.8, 516.9)">e</text><text xml:space="preserve" font-family="HoeflerText-Italic,Hoefler Text" font-style="italic" font-size="50.0" fill="#86837F" transform="matrix(1.00, 0.00, -0.00, -1.00, 1020.5, 516.9)">f</text><text xml:space="preserve" font-family="HoeflerText-Italic,Hoefler Text" font-style="italic" font-size="50.0" fill="#86837F" transform="matrix(1.00, 0.00, -0.00, -1.00, 1036.3, 516.9)">o</text><text xml:space="preserve" font-family="HoeflerText-Italic,Hoefler Text" font-style="italic" font-size="50.0" fill="#86837F" transform="matrix(1.00, 0.00, -0.00, -1.00, 1057.1, 516.9)">r</text><text xml:space="preserve" font-family="HoeflerText-Italic,Hoefler Text" font-style="italic" font-size="50.0" fill="#86837F" transform="matrix(1.00, 0.00, -0.00, -1.00, 1076.2, 516.9)">e</text><text xml:space="preserve" font-family="HoeflerText-Italic,Hoefler Text" font-style="italic" font-size="50.0" fill="#86837F" transform="matrix(1.00, 0.00, -0.00, -1.00, 1093.9, 516.9)"> </text><text xml:space="preserve" font-family="HoeflerText-Italic,Hoefler Text" font-style="italic" font-size="50.0" fill="#86837F" transform="matrix(1.00, 0.00, -0.00, -1.00, 1104.2, 516.9)">S</text><text xml:space="preserve" font-family="HoeflerText-Italic,Hoefler Text" font-style="italic" font-size="50.0" fill="#86837F" transform="matrix(1.00, 0.00, -0.00, -1.00, 1130.2, 516.9)">o</text><text xml:space="preserve" font-family="HoeflerText-Italic,Hoefler Text" font-style="italic" font-size="50.0" fill="#86837F" transform="matrix(1.00, 0.00, -0.00, -1.00, 1151.0, 516.9)">p</text><text xml:space="preserve" font-family="HoeflerText-Italic,Hoefler Text" font-style="italic" font-size="50.0" fill="#86837F" transform="matrix(1.00, 0.00, -0.00, -1.00, 1174.0, 516.9)">h</text><text xml:space="preserve" font-family="HoeflerText-Italic,Hoefler Text" font-style="italic" font-size="50.0" fill="#86837F" transform="matrix(1.00, 0.00, -0.00, -1.00, 1198.6, 516.9)">o</text><text xml:space="preserve" font-family="HoeflerText-Italic,Hoefler Text" font-style="italic" font-size="50.0" fill="#86837F" transform="matrix(1.00, 0.00, -0.00, -1.00, 1219.4, 516.9)">m</text><text xml:space="preserve" font-family="HoeflerText-Italic,Hoefler Text" font-style="italic" font-size="50.0" fill="#86837F" transform="matrix(1.00, 0.00, -0.00, -1.00, 1255.5, 516.9)">o</text><text xml:space="preserve" font-family="HoeflerText-Italic,Hoefler Text" font-style="italic" font-size="50.0" fill="#86837F" transform="matrix(1.00, 0.00, -0.00, -1.00, 1276.4, 516.9)">r</text><text xml:space="preserve" font-family="HoeflerText-Italic,Hoefler Text" font-style="italic" font-size="50.0" fill="#86837F" transform="matrix(1.00, 0.00, -0.00, -1.00, 1295.5, 516.9)">e</text><image xlink:href="../../6E95A4D7-63D8-4C29-9945-24DEBC65972F/assets/A7A5AF275BA408A5CFD312E049F962E5.png" width="26.00" height="26.00" transform="matrix(1.00, 0.00, -0.00, -1.00, 386.0, 446.0)"></image><g><clipPath id="clip0x7f9bc9051510"><path d="M 386.2 420.4 L 411.3 420.4 L 411.3 445.4 L 386.2 445.4 Z M 386.2 420.4 "></path></clipPath><g clip-path="url(#clip0x7f9bc9051510)"><g><g><clipPath id="clip0x7f9bc904e310"><path d="M 398.4 445.2 L 395.4 442.3 C 395.2 442.1 394.8 441.9 394.5 441.9 L 394.5 441.9 L 390.3 441.9 C 390.0 441.9 389.8 441.7 389.8 441.4 L 389.8 441.4 L 389.8 437.2 C 389.8 436.9 389.6 436.5 389.4 436.3 L 389.4 436.3 L 386.5 433.3 C 386.2 433.1 386.2 432.8 386.5 432.5 L 386.5 432.5 L 389.4 429.6 C 389.6 429.4 389.8 429.0 389.8 428.7 L 389.8 428.7 L 389.8 424.5 C 389.8 424.2 390.0 424.0 390.3 424.0 L 390.3 424.0 L 394.5 424.0 C 394.8 424.0 395.2 423.8 395.4 423.6 L 395.4 423.6 L 398.4 420.6 C 398.6 420.4 399.0 420.4 399.2 420.6 L 399.2 420.6 L 402.1 423.6 C 402.3 423.8 402.7 424.0 403.0 424.0 L 403.0 424.0 L 407.2 424.0 C 407.5 424.0 407.8 424.2 407.8 424.5 L 407.8 424.5 L 407.8 428.7 C 407.8 429.0 407.9 429.4 408.1 429.6 L 408.1 429.6 L 411.1 432.5 C 411.3 432.8 411.3 433.1 411.1 433.3 L 411.1 433.3 L 408.1 436.3 C 407.9 436.5 407.8 436.9 407.8 437.2 L 407.8 437.2 L 407.8 441.4 C 407.8 441.7 407.5 441.9 407.2 441.9 L 407.2 441.9 L 403.0 441.9 C 402.7 441.9 402.3 442.1 402.1 442.3 L 402.1 442.3 L 399.2 445.2 C 399.1 445.4 398.9 445.4 398.8 445.4 L 398.8 445.4 C 398.6 445.4 398.5 445.4 398.4 445.2 "></path></clipPath><g clip-path="url(#clip0x7f9bc904e310)"><g><clipPath id="clip0x7f9bc904f060"><path d="M 384.0 417.0 L 414.0 417.0 L 414.0 449.0 L 384.0 449.0 Z M 384.0 417.0 "></path></clipPath><g clip-path="url(#clip0x7f9bc904f060)"><path d="M 384.0 417.0 L 414.0 417.0 L 414.0 449.0 L 384.0 449.0 Z M 384.0 417.0 " fill="url(#gradSh1.4)"></path></g></g></g></g></g></g></g><image xlink:href="../../6E95A4D7-63D8-4C29-9945-24DEBC65972F/assets/FA809A2BAF2432326F82A1CAC4B1E8F9.png" width="698.00" height="55.00" transform="matrix(1.00, 0.00, -0.00, -1.00, 433.0, 455.0)"></image><text xml:space="preserve" font-family="HoeflerText-Italic,Hoefler Text" font-style="italic" font-size="50.0" fill="#86837F" transform="matrix(1.00, 0.00, -0.00, -1.00, 432.1, 416.9)">T</text><text xml:space="preserve" font-family="HoeflerText-Italic,Hoefler Text" font-style="italic" font-size="50.0" fill="#86837F" transform="matrix(1.00, 0.00, -0.00, -1.00, 465.6, 416.9)">h</text><text xml:space="preserve" font-family="HoeflerText-Italic,Hoefler Text" font-style="italic" font-size="50.0" fill="#86837F" transform="matrix(1.00, 0.00, -0.00, -1.00, 490.2, 416.9)">e</text><text xml:space="preserve" font-family="HoeflerText-Italic,Hoefler Text" font-style="italic" font-size="50.0" fill="#86837F" transform="matrix(1.00, 0.00, -0.00, -1.00, 507.9, 416.9)">n</text><text xml:space="preserve" font-family="HoeflerText-Italic,Hoefler Text" font-style="italic" font-size="50.0" fill="#86837F" transform="matrix(1.00, 0.00, -0.00, -1.00, 531.9, 416.9)"> </text><text xml:space="preserve" font-family="HoeflerText-Italic,Hoefler Text" font-style="italic" font-size="50.0" fill="#86837F" transform="matrix(1.00, 0.00, -0.00, -1.00, 542.1, 416.9)">i</text><text xml:space="preserve" font-family="HoeflerText-Italic,Hoefler Text" font-style="italic" font-size="50.0" fill="#86837F" transform="matrix(1.00, 0.00, -0.00, -1.00, 556.4, 416.9)"> </text><text xml:space="preserve" font-family="HoeflerText-Italic,Hoefler Text" font-style="italic" font-size="50.0" fill="#86837F" transform="matrix(1.00, 0.00, -0.00, -1.00, 566.7, 416.9)">t</text><text xml:space="preserve" font-family="HoeflerText-Italic,Hoefler Text" font-style="italic" font-size="50.0" fill="#86837F" transform="matrix(1.00, 0.00, -0.00, -1.00, 582.5, 416.9)">u</text><text xml:space="preserve" font-family="HoeflerText-Italic,Hoefler Text" font-style="italic" font-size="50.0" fill="#86837F" transform="matrix(1.00, 0.00, -0.00, -1.00, 607.0, 416.9)">r</text><text xml:space="preserve" font-family="HoeflerText-Italic,Hoefler Text" font-style="italic" font-size="50.0" fill="#86837F" transform="matrix(1.00, 0.00, -0.00, -1.00, 627.1, 416.9)">n</text><text xml:space="preserve" font-family="HoeflerText-Italic,Hoefler Text" font-style="italic" font-size="50.0" fill="#86837F" transform="matrix(1.00, 0.00, -0.00, -1.00, 651.1, 416.9)">e</text><text xml:space="preserve" font-family="HoeflerText-Italic,Hoefler Text" font-style="italic" font-size="50.0" fill="#86837F" transform="matrix(1.00, 0.00, -0.00, -1.00, 668.8, 416.9)">d</text><text xml:space="preserve" font-family="HoeflerText-Italic,Hoefler Text" font-style="italic" font-size="50.0" fill="#86837F" transform="matrix(1.00, 0.00, -0.00, -1.00, 692.7, 416.9)"> </text><text xml:space="preserve" font-family="HoeflerText-Italic,Hoefler Text" font-style="italic" font-size="50.0" fill="#86837F" transform="matrix(1.00, 0.00, -0.00, -1.00, 702.9, 416.9)">i</text><text xml:space="preserve" font-family="HoeflerText-Italic,Hoefler Text" font-style="italic" font-size="50.0" fill="#86837F" transform="matrix(1.00, 0.00, -0.00, -1.00, 717.2, 416.9)">n</text><text xml:space="preserve" font-family="HoeflerText-Italic,Hoefler Text" font-style="italic" font-size="50.0" fill="#86837F" transform="matrix(1.00, 0.00, -0.00, -1.00, 741.2, 416.9)">t</text><text xml:space="preserve" font-family="HoeflerText-Italic,Hoefler Text" font-style="italic" font-size="50.0" fill="#86837F" transform="matrix(1.00, 0.00, -0.00, -1.00, 757.0, 416.9)">o</text><text xml:space="preserve" font-family="HoeflerText-Italic,Hoefler Text" font-style="italic" font-size="50.0" fill="#86837F" transform="matrix(1.00, 0.00, -0.00, -1.00, 777.9, 416.9)"> </text><text xml:space="preserve" font-family="HoeflerText-Italic,Hoefler Text" font-style="italic" font-size="50.0" fill="#86837F" transform="matrix(1.00, 0.00, -0.00, -1.00, 788.1, 416.9)">C</text><text xml:space="preserve" font-family="HoeflerText-Italic,Hoefler Text" font-style="italic" font-size="50.0" fill="#86837F" transform="matrix(1.00, 0.00, -0.00, -1.00, 821.6, 416.9)">o</text><text xml:space="preserve" font-family="HoeflerText-Italic,Hoefler Text" font-style="italic" font-size="50.0" fill="#86837F" transform="matrix(1.00, 0.00, -0.00, -1.00, 842.4, 416.9)">m</text><text xml:space="preserve" font-family="HoeflerText-Italic,Hoefler Text" font-style="italic" font-size="50.0" fill="#86837F" transform="matrix(1.00, 0.00, -0.00, -1.00, 878.5, 416.9)">p</text><text xml:space="preserve" font-family="HoeflerText-Italic,Hoefler Text" font-style="italic" font-size="50.0" fill="#86837F" transform="matrix(1.00, 0.00, -0.00, -1.00, 901.5, 416.9)">u</text><text xml:space="preserve" font-family="HoeflerText-Italic,Hoefler Text" font-style="italic" font-size="50.0" fill="#86837F" transform="matrix(1.00, 0.00, -0.00, -1.00, 926.0, 416.9)">t</text><text xml:space="preserve" font-family="HoeflerText-Italic,Hoefler Text" font-style="italic" font-size="50.0" fill="#86837F" transform="matrix(1.00, 0.00, -0.00, -1.00, 941.8, 416.9)">e</text><text xml:space="preserve" font-family="HoeflerText-Italic,Hoefler Text" font-style="italic" font-size="50.0" fill="#86837F" transform="matrix(1.00, 0.00, -0.00, -1.00, 959.5, 416.9)">r</text><text xml:space="preserve" font-family="HoeflerText-Italic,Hoefler Text" font-style="italic" font-size="50.0" fill="#86837F" transform="matrix(1.00, 0.00, -0.00, -1.00, 978.6, 416.9)"> </text><text xml:space="preserve" font-family="HoeflerText-Italic,Hoefler Text" font-style="italic" font-size="50.0" fill="#86837F" transform="matrix(1.00, 0.00, -0.00, -1.00, 988.8, 416.9)">S</text><text xml:space="preserve" font-family="HoeflerText-Italic,Hoefler Text" font-style="italic" font-size="50.0" fill="#86837F" transform="matrix(1.00, 0.00, -0.00, -1.00, 1015.1, 416.9)">c</text><text xml:space="preserve" font-family="HoeflerText-Italic,Hoefler Text" font-style="italic" font-size="50.0" fill="#86837F" transform="matrix(1.00, 0.00, -0.00, -1.00, 1032.5, 416.9)">i</text><text xml:space="preserve" font-family="HoeflerText-Italic,Hoefler Text" font-style="italic" font-size="50.0" fill="#86837F" transform="matrix(1.00, 0.00, -0.00, -1.00, 1046.8, 416.9)">e</text><text xml:space="preserve" font-family="HoeflerText-Italic,Hoefler Text" font-style="italic" font-size="50.0" fill="#86837F" transform="matrix(1.00, 0.00, -0.00, -1.00, 1064.5, 416.9)">n</text><text xml:space="preserve" font-family="HoeflerText-Italic,Hoefler Text" font-style="italic" font-size="50.0" fill="#86837F" transform="matrix(1.00, 0.00, -0.00, -1.00, 1088.5, 416.9)">c</text><text xml:space="preserve" font-family="HoeflerText-Italic,Hoefler Text" font-style="italic" font-size="50.0" fill="#86837F" transform="matrix(1.00, 0.00, -0.00, -1.00, 1106.0, 416.9)">e</text><text xml:space="preserve" font-family="HoeflerText-Italic,Hoefler Text" font-style="italic" font-size="50.0" fill="#86837F" transform="matrix(1.00, 0.00, -0.00, -1.00, 1122.2, 416.9)">.</text><text xml:space="preserve" font-family="HoeflerText-Italic,Hoefler Text" font-style="italic" font-size="50.0" fill="#86837F" transform="matrix(1.00, 0.00, -0.00, -1.00, 1133.6, 416.9)"> </text><image xlink:href="../../6E95A4D7-63D8-4C29-9945-24DEBC65972F/assets/A7A5AF275BA408A5CFD312E049F962E5.png" width="26.00" height="26.00" transform="matrix(1.00, 0.00, -0.00, -1.00, 386.0, 346.0)"></image><g><clipPath id="clip0x7f9bc56c48a0"><path d="M 386.2 320.4 L 411.3 320.4 L 411.3 345.4 L 386.2 345.4 Z M 386.2 320.4 "></path></clipPath><g clip-path="url(#clip0x7f9bc56c48a0)"><g><g><clipPath id="clip0x7f9bc56e4250"><path d="M 398.4 345.2 L 395.4 342.3 C 395.2 342.1 394.8 341.9 394.5 341.9 L 394.5 341.9 L 390.3 341.9 C 390.0 341.9 389.8 341.7 389.8 341.4 L 389.8 341.4 L 389.8 337.2 C 389.8 336.9 389.6 336.5 389.4 336.3 L 389.4 336.3 L 386.5 333.3 C 386.2 333.1 386.2 332.8 386.5 332.5 L 386.5 332.5 L 389.4 329.6 C 389.6 329.4 389.8 329.0 389.8 328.7 L 389.8 328.7 L 389.8 324.5 C 389.8 324.2 390.0 324.0 390.3 324.0 L 390.3 324.0 L 394.5 324.0 C 394.8 324.0 395.2 323.8 395.4 323.6 L 395.4 323.6 L 398.4 320.6 C 398.6 320.4 399.0 320.4 399.2 320.6 L 399.2 320.6 L 402.1 323.6 C 402.3 323.8 402.7 324.0 403.0 324.0 L 403.0 324.0 L 407.2 324.0 C 407.5 324.0 407.8 324.2 407.8 324.5 L 407.8 324.5 L 407.8 328.7 C 407.8 329.0 407.9 329.4 408.1 329.6 L 408.1 329.6 L 411.1 332.5 C 411.3 332.8 411.3 333.1 411.1 333.3 L 411.1 333.3 L 408.1 336.3 C 407.9 336.5 407.8 336.9 407.8 337.2 L 407.8 337.2 L 407.8 341.4 C 407.8 341.7 407.5 341.9 407.2 341.9 L 407.2 341.9 L 403.0 341.9 C 402.7 341.9 402.3 342.1 402.1 342.3 L 402.1 342.3 L 399.2 345.2 C 399.1 345.4 398.9 345.4 398.8 345.4 L 398.8 345.4 C 398.6 345.4 398.5 345.4 398.4 345.2 "></path></clipPath><g clip-path="url(#clip0x7f9bc56e4250)"><g><clipPath id="clip0x7f9bc56e4fe0"><path d="M 384.0 317.0 L 414.0 317.0 L 414.0 349.0 L 384.0 349.0 Z M 384.0 317.0 "></path></clipPath><g clip-path="url(#clip0x7f9bc56e4fe0)"><path d="M 384.0 317.0 L 414.0 317.0 L 414.0 349.0 L 384.0 349.0 Z M 384.0 317.0 " fill="url(#gradSh1.5)"></path></g></g></g></g></g></g></g><image xlink:href="../../6E95A4D7-63D8-4C29-9945-24DEBC65972F/assets/6DD63CA21ACE8EB9D05A123CFB810EDB.png" width="948.00" height="56.00" transform="matrix(1.00, 0.00, -0.00, -1.00, 427.0, 355.0)"></image><text xml:space="preserve" font-family="HoeflerText-Italic,Hoefler Text" font-style="italic" font-size="50.0" fill="#86837F" transform="matrix(1.00, 0.00, -0.00, -1.00, 432.1, 316.9)">A</text><text xml:space="preserve" font-family="HoeflerText-Italic,Hoefler Text" font-style="italic" font-size="50.0" fill="#86837F" transform="matrix(1.00, 0.00, -0.00, -1.00, 468.7, 316.9)">n</text><text xml:space="preserve" font-family="HoeflerText-Italic,Hoefler Text" font-style="italic" font-size="50.0" fill="#86837F" transform="matrix(1.00, 0.00, -0.00, -1.00, 492.7, 316.9)">d</text><text xml:space="preserve" font-family="HoeflerText-Italic,Hoefler Text" font-style="italic" font-size="50.0" fill="#86837F" transform="matrix(1.00, 0.00, -0.00, -1.00, 516.6, 316.9)"> </text><text xml:space="preserve" font-family="HoeflerText-Italic,Hoefler Text" font-style="italic" font-size="50.0" fill="#86837F" transform="matrix(1.00, 0.00, -0.00, -1.00, 524.3, 316.9)">T</text><text xml:space="preserve" font-family="HoeflerText-Italic,Hoefler Text" font-style="italic" font-size="50.0" fill="#86837F" transform="matrix(1.00, 0.00, -0.00, -1.00, 557.8, 316.9)">h</text><text xml:space="preserve" font-family="HoeflerText-Italic,Hoefler Text" font-style="italic" font-size="50.0" fill="#86837F" transform="matrix(1.00, 0.00, -0.00, -1.00, 581.4, 316.9)">a</text><text xml:space="preserve" font-family="HoeflerText-Italic,Hoefler Text" font-style="italic" font-size="50.0" fill="#86837F" transform="matrix(1.00, 0.00, -0.00, -1.00, 604.6, 316.9)">t</text><text xml:space="preserve" font-family="HoeflerText-Italic,Hoefler Text" font-style="italic" font-size="50.0" fill="#86837F" transform="matrix(1.00, 0.00, -0.00, -1.00, 618.9, 316.9)">,</text><text xml:space="preserve" font-family="HoeflerText-Italic,Hoefler Text" font-style="italic" font-size="50.0" fill="#86837F" transform="matrix(1.00, 0.00, -0.00, -1.00, 630.3, 316.9)"> </text><text xml:space="preserve" font-family="HoeflerText-Italic,Hoefler Text" font-style="italic" font-size="50.0" fill="#86837F" transform="matrix(1.00, 0.00, -0.00, -1.00, 640.6, 316.9)">i</text><text xml:space="preserve" font-family="HoeflerText-Italic,Hoefler Text" font-style="italic" font-size="50.0" fill="#86837F" transform="matrix(1.00, 0.00, -0.00, -1.00, 654.9, 316.9)">s</text><text xml:space="preserve" font-family="HoeflerText-Italic,Hoefler Text" font-style="italic" font-size="50.0" fill="#86837F" transform="matrix(1.00, 0.00, -0.00, -1.00, 669.7, 316.9)"> </text><text xml:space="preserve" font-family="HoeflerText-Italic,Hoefler Text" font-style="italic" font-size="50.0" fill="#86837F" transform="matrix(1.00, 0.00, -0.00, -1.00, 679.9, 316.9)">w</text><text xml:space="preserve" font-family="HoeflerText-Italic,Hoefler Text" font-style="italic" font-size="50.0" fill="#86837F" transform="matrix(1.00, 0.00, -0.00, -1.00, 717.7, 316.9)">h</text><text xml:space="preserve" font-family="HoeflerText-Italic,Hoefler Text" font-style="italic" font-size="50.0" fill="#86837F" transform="matrix(1.00, 0.00, -0.00, -1.00, 741.3, 316.9)">a</text><text xml:space="preserve" font-family="HoeflerText-Italic,Hoefler Text" font-style="italic" font-size="50.0" fill="#86837F" transform="matrix(1.00, 0.00, -0.00, -1.00, 764.5, 316.9)">t</text><text xml:space="preserve" font-family="HoeflerText-Italic,Hoefler Text" font-style="italic" font-size="50.0" fill="#86837F" transform="matrix(1.00, 0.00, -0.00, -1.00, 780.3, 316.9)"> </text><text xml:space="preserve" font-family="HoeflerText-Italic,Hoefler Text" font-style="italic" font-size="50.0" fill="#86837F" transform="matrix(1.00, 0.00, -0.00, -1.00, 790.6, 316.9)">i</text><text xml:space="preserve" font-family="HoeflerText-Italic,Hoefler Text" font-style="italic" font-size="50.0" fill="#86837F" transform="matrix(1.00, 0.00, -0.00, -1.00, 804.9, 316.9)"> </text><text xml:space="preserve" font-family="HoeflerText-Italic,Hoefler Text" font-style="italic" font-size="50.0" fill="#86837F" transform="matrix(1.00, 0.00, -0.00, -1.00, 815.1, 316.9)">p</text><text xml:space="preserve" font-family="HoeflerText-Italic,Hoefler Text" font-style="italic" font-size="50.0" fill="#86837F" transform="matrix(1.00, 0.00, -0.00, -1.00, 838.1, 316.9)">l</text><text xml:space="preserve" font-family="HoeflerText-Italic,Hoefler Text" font-style="italic" font-size="50.0" fill="#86837F" transform="matrix(1.00, 0.00, -0.00, -1.00, 851.5, 316.9)">a</text><text xml:space="preserve" font-family="HoeflerText-Italic,Hoefler Text" font-style="italic" font-size="50.0" fill="#86837F" transform="matrix(1.00, 0.00, -0.00, -1.00, 874.7, 316.9)">n</text><text xml:space="preserve" font-family="HoeflerText-Italic,Hoefler Text" font-style="italic" font-size="50.0" fill="#86837F" transform="matrix(1.00, 0.00, -0.00, -1.00, 898.7, 316.9)"> </text><text xml:space="preserve" font-family="HoeflerText-Italic,Hoefler Text" font-style="italic" font-size="50.0" fill="#86837F" transform="matrix(1.00, 0.00, -0.00, -1.00, 908.9, 316.9)">t</text><text xml:space="preserve" font-family="HoeflerText-Italic,Hoefler Text" font-style="italic" font-size="50.0" fill="#86837F" transform="matrix(1.00, 0.00, -0.00, -1.00, 924.7, 316.9)">o</text><text xml:space="preserve" font-family="HoeflerText-Italic,Hoefler Text" font-style="italic" font-size="50.0" fill="#86837F" transform="matrix(1.00, 0.00, -0.00, -1.00, 945.6, 316.9)"> </text><text xml:space="preserve" font-family="HoeflerText-Italic,Hoefler Text" font-style="italic" font-size="50.0" fill="#86837F" transform="matrix(1.00, 0.00, -0.00, -1.00, 955.8, 316.9)">p</text><text xml:space="preserve" font-family="HoeflerText-Italic,Hoefler Text" font-style="italic" font-size="50.0" fill="#86837F" transform="matrix(1.00, 0.00, -0.00, -1.00, 978.8, 316.9)">u</text><text xml:space="preserve" font-family="HoeflerText-Italic,Hoefler Text" font-style="italic" font-size="50.0" fill="#86837F" transform="matrix(1.00, 0.00, -0.00, -1.00, 1003.3, 316.9)">t</text><text xml:space="preserve" font-family="HoeflerText-Italic,Hoefler Text" font-style="italic" font-size="50.0" fill="#86837F" transform="matrix(1.00, 0.00, -0.00, -1.00, 1019.1, 316.9)"> </text><text xml:space="preserve" font-family="HoeflerText-Italic,Hoefler Text" font-style="italic" font-size="50.0" fill="#86837F" transform="matrix(1.00, 0.00, -0.00, -1.00, 1029.3, 316.9)">m</text><text xml:space="preserve" font-family="HoeflerText-Italic,Hoefler Text" font-style="italic" font-size="50.0" fill="#86837F" transform="matrix(1.00, 0.00, -0.00, -1.00, 1065.4, 316.9)">y</text><text xml:space="preserve" font-family="HoeflerText-Italic,Hoefler Text" font-style="italic" font-size="50.0" fill="#86837F" transform="matrix(1.00, 0.00, -0.00, -1.00, 1087.3, 316.9)"> </text><text xml:space="preserve" font-family="HoeflerText-Italic,Hoefler Text" font-style="italic" font-size="50.0" fill="#86837F" transform="matrix(1.00, 0.00, -0.00, -1.00, 1097.5, 316.9)">w</text><text xml:space="preserve" font-family="HoeflerText-Italic,Hoefler Text" font-style="italic" font-size="50.0" fill="#86837F" transform="matrix(1.00, 0.00, -0.00, -1.00, 1135.3, 316.9)">h</text><text xml:space="preserve" font-family="HoeflerText-Italic,Hoefler Text" font-style="italic" font-size="50.0" fill="#86837F" transform="matrix(1.00, 0.00, -0.00, -1.00, 1159.9, 316.9)">o</text><text xml:space="preserve" font-family="HoeflerText-Italic,Hoefler Text" font-style="italic" font-size="50.0" fill="#86837F" transform="matrix(1.00, 0.00, -0.00, -1.00, 1180.8, 316.9)">l</text><text xml:space="preserve" font-family="HoeflerText-Italic,Hoefler Text" font-style="italic" font-size="50.0" fill="#86837F" transform="matrix(1.00, 0.00, -0.00, -1.00, 1194.2, 316.9)">e</text><text xml:space="preserve" font-family="HoeflerText-Italic,Hoefler Text" font-style="italic" font-size="50.0" fill="#86837F" transform="matrix(1.00, 0.00, -0.00, -1.00, 1211.9, 316.9)"> </text><text xml:space="preserve" font-family="HoeflerText-Italic,Hoefler Text" font-style="italic" font-size="50.0" fill="#86837F" transform="matrix(1.00, 0.00, -0.00, -1.00, 1222.1, 316.9)">l</text><text xml:space="preserve" font-family="HoeflerText-Italic,Hoefler Text" font-style="italic" font-size="50.0" fill="#86837F" transform="matrix(1.00, 0.00, -0.00, -1.00, 1235.5, 316.9)">i</text><text xml:space="preserve" font-family="HoeflerText-Italic,Hoefler Text" font-style="italic" font-size="50.0" fill="#86837F" transform="matrix(1.00, 0.00, -0.00, -1.00, 1249.8, 316.9)">f</text><text xml:space="preserve" font-family="HoeflerText-Italic,Hoefler Text" font-style="italic" font-size="50.0" fill="#86837F" transform="matrix(1.00, 0.00, -0.00, -1.00, 1265.6, 316.9)">e</text><text xml:space="preserve" font-family="HoeflerText-Italic,Hoefler Text" font-style="italic" font-size="50.0" fill="#86837F" transform="matrix(1.00, 0.00, -0.00, -1.00, 1283.3, 316.9)"> </text><text xml:space="preserve" font-family="HoeflerText-Italic,Hoefler Text" font-style="italic" font-size="50.0" fill="#86837F" transform="matrix(1.00, 0.00, -0.00, -1.00, 1293.5, 316.9)">i</text><text xml:space="preserve" font-family="HoeflerText-Italic,Hoefler Text" font-style="italic" font-size="50.0" fill="#86837F" transform="matrix(1.00, 0.00, -0.00, -1.00, 1307.8, 316.9)">n</text><text xml:space="preserve" font-family="HoeflerText-Italic,Hoefler Text" font-style="italic" font-size="50.0" fill="#86837F" transform="matrix(1.00, 0.00, -0.00, -1.00, 1331.8, 316.9)">t</text><text xml:space="preserve" font-family="HoeflerText-Italic,Hoefler Text" font-style="italic" font-size="50.0" fill="#86837F" transform="matrix(1.00, 0.00, -0.00, -1.00, 1347.6, 316.9)">o</text><text xml:space="preserve" font-family="HoeflerText-Italic,Hoefler Text" font-style="italic" font-size="50.0" fill="#86837F" transform="matrix(1.00, 0.00, -0.00, -1.00, 1366.2, 316.9)">.</text></g></svg>