<?xml version="1.0" encoding="UTF-8" standalone="no"?><svg xmlns="http://www.w3.org/2000/svg" xmlns:xlink="http://www.w3.org/1999/xlink" clip-rule="evenodd" stroke-miterlimit="10" viewBox="0 0 688 100"><desc>SVG generated by Keynote</desc><defs></defs><g transform="matrix(1.00, 0.00, -0.00, -1.00, 0.0, 100.0)"><image xlink:href="AE2FE6623AC396ABF241F3681DFF2AC0.png" width="684.00" height="97.00" transform="matrix(1.00, 0.00, -0.00, -1.00, 2.0, 98.0)"></image><text xml:space="preserve" font-family="HoeflerText-Regular,Hoefler Text" font-size="94.0" fill="#BCAF8F" transform="matrix(1.00, 0.00, -0.00, -1.00, 3.2, 27.6)">W</text><text xml:space="preserve" font-family="HoeflerText-Regular,Hoefler Text" font-size="94.0" fill="#BCAF8F" transform="matrix(1.00, 0.00, -0.00, -1.00, 108.9, 27.6)">h</text><text xml:space="preserve" font-family="HoeflerText-Regular,Hoefler Text" font-size="94.0" fill="#BCAF8F" transform="matrix(1.00, 0.00, -0.00, -1.00, 161.0, 27.6)">a</text><text xml:space="preserve" font-family="HoeflerText-Regular,Hoefler Text" font-size="94.0" fill="#BCAF8F" transform="matrix(1.00, 0.00, -0.00, -1.00, 202.9, 27.6)">t</text><text xml:space="preserve" font-family="HoeflerText-Regular,Hoefler Text" font-size="94.0" fill="#BCAF8F" transform="matrix(1.00, 0.00, -0.00, -1.00, 237.6, 27.6)">’</text><text xml:space="preserve" font-family="HoeflerText-Regular,Hoefler Text" font-size="94.0" fill="#BCAF8F" transform="matrix(1.00, 0.00, -0.00, -1.00, 253.0, 27.6)">s</text><text xml:space="preserve" font-family="HoeflerText-Regular,Hoefler Text" font-size="94.0" fill="#BCAF8F" transform="matrix(1.00, 0.00, -0.00, -1.00, 288.9, 27.6)"> </text><text xml:space="preserve" font-family="HoeflerText-Regular,Hoefler Text" font-size="94.0" fill="#BCAF8F" transform="matrix(1.00, 0.00, -0.00, -1.00, 312.4, 27.6)">m</text><text xml:space="preserve" font-family="HoeflerText-Regular,Hoefler Text" font-size="94.0" fill="#BCAF8F" transform="matrix(1.00, 0.00, -0.00, -1.00, 390.2, 27.6)">y</text><text xml:space="preserve" font-family="HoeflerText-Regular,Hoefler Text" font-size="94.0" fill="#BCAF8F" transform="matrix(1.00, 0.00, -0.00, -1.00, 433.2, 27.6)"> </text><text xml:space="preserve" font-family="HoeflerText-Regular,Hoefler Text" font-size="94.0" fill="#BCAF8F" transform="matrix(1.00, 0.00, -0.00, -1.00, 456.7, 27.6)">m</text><text xml:space="preserve" font-family="HoeflerText-Regular,Hoefler Text" font-size="94.0" fill="#BCAF8F" transform="matrix(1.00, 0.00, -0.00, -1.00, 534.4, 27.6)">a</text><text xml:space="preserve" font-family="HoeflerText-Regular,Hoefler Text" font-size="94.0" fill="#BCAF8F" transform="matrix(1.00, 0.00, -0.00, -1.00, 576.4, 27.6)">j</text><text xml:space="preserve" font-family="HoeflerText-Regular,Hoefler Text" font-size="94.0" fill="#BCAF8F" transform="matrix(1.00, 0.00, -0.00, -1.00, 599.4, 27.6)">o</text><text xml:space="preserve" font-family="HoeflerText-Regular,Hoefler Text" font-size="94.0" fill="#BCAF8F" transform="matrix(1.00, 0.00, -0.00, -1.00, 649.8, 27.6)">r</text></g></svg>