<?xml version="1.0" encoding="UTF-8" standalone="no"?><svg xmlns="http://www.w3.org/2000/svg" xmlns:xlink="http://www.w3.org/1999/xlink" clip-rule="evenodd" stroke-miterlimit="10" viewBox="0 0 753 57"><desc>SVG generated by Keynote</desc><defs><radialGradient id="gradSh1.1" cx="0.0" cy="0.0" r="1.0" fx="0.0" fy="0.0" gradientUnits="userSpaceOnUse" gradientTransform="matrix(12.49, 0.00, 0.00, -12.49, 14.8, 33.9)"><stop offset="0.00000" stop-color="#FFFFFF"></stop><stop offset="0.05792" stop-color="#FEFEFE"></stop><stop offset="1.00000" stop-color="#000000"></stop></radialGradient></defs><g transform="matrix(1.00, 0.00, -0.00, -1.00, 0.0, 57.0)"><image xlink:href="../../6E95A4D7-63D8-4C29-9945-24DEBC65972F/assets/A7A5AF275BA408A5CFD312E049F962E5.png" width="26.00" height="26.00" transform="matrix(1.00, 0.00, -0.00, -1.00, 2.0, 47.0)"></image><g><clipPath id="clip0x7f9bd1278990"><path d="M 2.2 21.4 L 27.3 21.4 L 27.3 46.4 L 2.2 46.4 Z M 2.2 21.4 "></path></clipPath><g clip-path="url(#clip0x7f9bd1278990)"><g><g><clipPath id="clip0x7f9bc8eda8b0"><path d="M 14.4 46.2 L 11.4 43.3 C 11.2 43.1 10.8 42.9 10.5 42.9 L 10.5 42.9 L 6.3 42.9 C 6.0 42.9 5.8 42.7 5.8 42.4 L 5.8 42.4 L 5.8 38.2 C 5.8 37.9 5.6 37.5 5.4 37.3 L 5.4 37.3 L 2.5 34.3 C 2.2 34.1 2.2 33.8 2.5 33.5 L 2.5 33.5 L 5.4 30.6 C 5.6 30.4 5.8 30.0 5.8 29.7 L 5.8 29.7 L 5.8 25.5 C 5.8 25.2 6.0 25.0 6.3 25.0 L 6.3 25.0 L 10.5 25.0 C 10.8 25.0 11.2 24.8 11.4 24.6 L 11.4 24.6 L 14.4 21.6 C 14.6 21.4 15.0 21.4 15.2 21.6 L 15.2 21.6 L 18.1 24.6 C 18.3 24.8 18.7 25.0 19.0 25.0 L 19.0 25.0 L 23.2 25.0 C 23.5 25.0 23.8 25.2 23.8 25.5 L 23.8 25.5 L 23.8 29.7 C 23.8 30.0 23.9 30.4 24.1 30.6 L 24.1 30.6 L 27.1 33.5 C 27.3 33.8 27.3 34.1 27.1 34.3 L 27.1 34.3 L 24.1 37.3 C 23.9 37.5 23.8 37.9 23.8 38.2 L 23.8 38.2 L 23.8 42.4 C 23.8 42.7 23.5 42.9 23.2 42.9 L 23.2 42.9 L 19.0 42.9 C 18.7 42.9 18.3 43.1 18.1 43.3 L 18.1 43.3 L 15.2 46.2 C 15.1 46.4 14.9 46.4 14.8 46.4 L 14.8 46.4 C 14.6 46.4 14.5 46.4 14.4 46.2 "></path></clipPath><g clip-path="url(#clip0x7f9bc8eda8b0)"><g><clipPath id="clip0x7f9bc8e84e80"><path d="M 0.0 18.0 L 30.0 18.0 L 30.0 50.0 L 0.0 50.0 Z M 0.0 18.0 "></path></clipPath><g clip-path="url(#clip0x7f9bc8e84e80)"><path d="M 0.0 18.0 L 30.0 18.0 L 30.0 50.0 L 0.0 50.0 Z M 0.0 18.0 " fill="url(#gradSh1.1)"></path></g></g></g></g></g></g></g><image xlink:href="FA809A2BAF2432326F82A1CAC4B1E8F9.png" width="698.00" height="55.00" transform="matrix(1.00, 0.00, -0.00, -1.00, 49.0, 56.0)"></image><text xml:space="preserve" font-family="HoeflerText-Italic,Hoefler Text" font-style="italic" font-size="50.0" fill="#86837F" transform="matrix(1.00, 0.00, -0.00, -1.00, 48.1, 17.9)">T</text><text xml:space="preserve" font-family="HoeflerText-Italic,Hoefler Text" font-style="italic" font-size="50.0" fill="#86837F" transform="matrix(1.00, 0.00, -0.00, -1.00, 81.6, 17.9)">h</text><text xml:space="preserve" font-family="HoeflerText-Italic,Hoefler Text" font-style="italic" font-size="50.0" fill="#86837F" transform="matrix(1.00, 0.00, -0.00, -1.00, 106.2, 17.9)">e</text><text xml:space="preserve" font-family="HoeflerText-Italic,Hoefler Text" font-style="italic" font-size="50.0" fill="#86837F" transform="matrix(1.00, 0.00, -0.00, -1.00, 123.9, 17.9)">n</text><text xml:space="preserve" font-family="HoeflerText-Italic,Hoefler Text" font-style="italic" font-size="50.0" fill="#86837F" transform="matrix(1.00, 0.00, -0.00, -1.00, 147.9, 17.9)"> </text><text xml:space="preserve" font-family="HoeflerText-Italic,Hoefler Text" font-style="italic" font-size="50.0" fill="#86837F" transform="matrix(1.00, 0.00, -0.00, -1.00, 158.1, 17.9)">i</text><text xml:space="preserve" font-family="HoeflerText-Italic,Hoefler Text" font-style="italic" font-size="50.0" fill="#86837F" transform="matrix(1.00, 0.00, -0.00, -1.00, 172.4, 17.9)"> </text><text xml:space="preserve" font-family="HoeflerText-Italic,Hoefler Text" font-style="italic" font-size="50.0" fill="#86837F" transform="matrix(1.00, 0.00, -0.00, -1.00, 182.7, 17.9)">t</text><text xml:space="preserve" font-family="HoeflerText-Italic,Hoefler Text" font-style="italic" font-size="50.0" fill="#86837F" transform="matrix(1.00, 0.00, -0.00, -1.00, 198.5, 17.9)">u</text><text xml:space="preserve" font-family="HoeflerText-Italic,Hoefler Text" font-style="italic" font-size="50.0" fill="#86837F" transform="matrix(1.00, 0.00, -0.00, -1.00, 223.0, 17.9)">r</text><text xml:space="preserve" font-family="HoeflerText-Italic,Hoefler Text" font-style="italic" font-size="50.0" fill="#86837F" transform="matrix(1.00, 0.00, -0.00, -1.00, 243.1, 17.9)">n</text><text xml:space="preserve" font-family="HoeflerText-Italic,Hoefler Text" font-style="italic" font-size="50.0" fill="#86837F" transform="matrix(1.00, 0.00, -0.00, -1.00, 267.1, 17.9)">e</text><text xml:space="preserve" font-family="HoeflerText-Italic,Hoefler Text" font-style="italic" font-size="50.0" fill="#86837F" transform="matrix(1.00, 0.00, -0.00, -1.00, 284.8, 17.9)">d</text><text xml:space="preserve" font-family="HoeflerText-Italic,Hoefler Text" font-style="italic" font-size="50.0" fill="#86837F" transform="matrix(1.00, 0.00, -0.00, -1.00, 308.7, 17.9)"> </text><text xml:space="preserve" font-family="HoeflerText-Italic,Hoefler Text" font-style="italic" font-size="50.0" fill="#86837F" transform="matrix(1.00, 0.00, -0.00, -1.00, 318.9, 17.9)">i</text><text xml:space="preserve" font-family="HoeflerText-Italic,Hoefler Text" font-style="italic" font-size="50.0" fill="#86837F" transform="matrix(1.00, 0.00, -0.00, -1.00, 333.2, 17.9)">n</text><text xml:space="preserve" font-family="HoeflerText-Italic,Hoefler Text" font-style="italic" font-size="50.0" fill="#86837F" transform="matrix(1.00, 0.00, -0.00, -1.00, 357.2, 17.9)">t</text><text xml:space="preserve" font-family="HoeflerText-Italic,Hoefler Text" font-style="italic" font-size="50.0" fill="#86837F" transform="matrix(1.00, 0.00, -0.00, -1.00, 373.0, 17.9)">o</text><text xml:space="preserve" font-family="HoeflerText-Italic,Hoefler Text" font-style="italic" font-size="50.0" fill="#86837F" transform="matrix(1.00, 0.00, -0.00, -1.00, 393.9, 17.9)"> </text><text xml:space="preserve" font-family="HoeflerText-Italic,Hoefler Text" font-style="italic" font-size="50.0" fill="#86837F" transform="matrix(1.00, 0.00, -0.00, -1.00, 404.1, 17.9)">C</text><text xml:space="preserve" font-family="HoeflerText-Italic,Hoefler Text" font-style="italic" font-size="50.0" fill="#86837F" transform="matrix(1.00, 0.00, -0.00, -1.00, 437.6, 17.9)">o</text><text xml:space="preserve" font-family="HoeflerText-Italic,Hoefler Text" font-style="italic" font-size="50.0" fill="#86837F" transform="matrix(1.00, 0.00, -0.00, -1.00, 458.4, 17.9)">m</text><text xml:space="preserve" font-family="HoeflerText-Italic,Hoefler Text" font-style="italic" font-size="50.0" fill="#86837F" transform="matrix(1.00, 0.00, -0.00, -1.00, 494.5, 17.9)">p</text><text xml:space="preserve" font-family="HoeflerText-Italic,Hoefler Text" font-style="italic" font-size="50.0" fill="#86837F" transform="matrix(1.00, 0.00, -0.00, -1.00, 517.5, 17.9)">u</text><text xml:space="preserve" font-family="HoeflerText-Italic,Hoefler Text" font-style="italic" font-size="50.0" fill="#86837F" transform="matrix(1.00, 0.00, -0.00, -1.00, 542.0, 17.9)">t</text><text xml:space="preserve" font-family="HoeflerText-Italic,Hoefler Text" font-style="italic" font-size="50.0" fill="#86837F" transform="matrix(1.00, 0.00, -0.00, -1.00, 557.8, 17.9)">e</text><text xml:space="preserve" font-family="HoeflerText-Italic,Hoefler Text" font-style="italic" font-size="50.0" fill="#86837F" transform="matrix(1.00, 0.00, -0.00, -1.00, 575.5, 17.9)">r</text><text xml:space="preserve" font-family="HoeflerText-Italic,Hoefler Text" font-style="italic" font-size="50.0" fill="#86837F" transform="matrix(1.00, 0.00, -0.00, -1.00, 594.6, 17.9)"> </text><text xml:space="preserve" font-family="HoeflerText-Italic,Hoefler Text" font-style="italic" font-size="50.0" fill="#86837F" transform="matrix(1.00, 0.00, -0.00, -1.00, 604.8, 17.9)">S</text><text xml:space="preserve" font-family="HoeflerText-Italic,Hoefler Text" font-style="italic" font-size="50.0" fill="#86837F" transform="matrix(1.00, 0.00, -0.00, -1.00, 631.1, 17.9)">c</text><text xml:space="preserve" font-family="HoeflerText-Italic,Hoefler Text" font-style="italic" font-size="50.0" fill="#86837F" transform="matrix(1.00, 0.00, -0.00, -1.00, 648.5, 17.9)">i</text><text xml:space="preserve" font-family="HoeflerText-Italic,Hoefler Text" font-style="italic" font-size="50.0" fill="#86837F" transform="matrix(1.00, 0.00, -0.00, -1.00, 662.8, 17.9)">e</text><text xml:space="preserve" font-family="HoeflerText-Italic,Hoefler Text" font-style="italic" font-size="50.0" fill="#86837F" transform="matrix(1.00, 0.00, -0.00, -1.00, 680.5, 17.9)">n</text><text xml:space="preserve" font-family="HoeflerText-Italic,Hoefler Text" font-style="italic" font-size="50.0" fill="#86837F" transform="matrix(1.00, 0.00, -0.00, -1.00, 704.5, 17.9)">c</text><text xml:space="preserve" font-family="HoeflerText-Italic,Hoefler Text" font-style="italic" font-size="50.0" fill="#86837F" transform="matrix(1.00, 0.00, -0.00, -1.00, 722.0, 17.9)">e</text><text xml:space="preserve" font-family="HoeflerText-Italic,Hoefler Text" font-style="italic" font-size="50.0" fill="#86837F" transform="matrix(1.00, 0.00, -0.00, -1.00, 738.2, 17.9)">.</text><text xml:space="preserve" font-family="HoeflerText-Italic,Hoefler Text" font-style="italic" font-size="50.0" fill="#86837F" transform="matrix(1.00, 0.00, -0.00, -1.00, 749.6, 17.9)"> </text></g></svg>