<?xml version="1.0" encoding="UTF-8" standalone="no"?><svg xmlns="http://www.w3.org/2000/svg" xmlns:xlink="http://www.w3.org/1999/xlink" clip-rule="evenodd" stroke-miterlimit="10" viewBox="0 0 1219 228"><desc>SVG generated by Keynote</desc><defs></defs><g transform="matrix(1.00, 0.00, -0.00, -1.00, 0.0, 228.0)"><g><clipPath id="clip0x7f9bc96c1140"><path d="M 17.3 20.1 L 1201.8 20.1 L 1201.8 209.3 L 17.3 209.3 Z M 17.3 20.1 "></path></clipPath><g clip-path="url(#clip0x7f9bc96c1140)"><path d="M 17.3 209.2 L 1201.8 209.2 L 1201.8 20.1 L 17.3 20.1 Z M 17.3 209.2 " fill="#FEFFFF" fill-opacity="0.00"></path></g></g><g><clipPath id="clip0x7f9bd125bee0"><path d="M 17.3 207.9 L 227.9 207.9 L 227.9 20.2 L 17.3 20.2 Z M 17.3 207.9 "></path></clipPath><g clip-path="url(#clip0x7f9bd125bee0)"><g><clipPath id="clip0x7f9bd125c6f0"><path d="M 17.3 20.2 L 227.9 20.2 L 227.9 207.9 L 17.3 207.9 Z M 17.3 20.2 "></path></clipPath><g clip-path="url(#clip0x7f9bd125c6f0)"><image xlink:href="815571CCD945EA94117FB76D0FB18221.jpeg" width="599.00" height="423.00" transform="matrix(0.48, 0.00, -0.00, -0.57, -25.7, 231.0)"></image></g></g></g></g><g><clipPath id="clip0x7f9bd13b9370"><path d="M 405.0 207.9 L 604.7 207.9 L 604.7 20.2 L 405.0 20.2 Z M 405.0 207.9 "></path></clipPath><g clip-path="url(#clip0x7f9bd13b9370)"><g><clipPath id="clip0x7f9bc8950940"><path d="M 405.0 20.2 L 604.7 20.2 L 604.7 207.9 L 405.0 207.9 Z M 405.0 20.2 "></path></clipPath><g clip-path="url(#clip0x7f9bc8950940)"><image xlink:href="CC43309362ADD5FF85CA2CC9FA9A9956.jpeg" width="599.00" height="424.00" transform="matrix(0.51, 0.00, -0.00, -0.63, 342.0, 239.1)"></image></g></g></g></g><g><clipPath id="clip0x7f9bc85e81a0"><path d="M 995.4 207.9 L 1201.8 207.9 L 1201.8 20.2 L 995.4 20.2 Z M 995.4 207.9 "></path></clipPath><g clip-path="url(#clip0x7f9bc85e81a0)"><g><clipPath id="clip0x7f9bd10d1fd0"><path d="M 995.4 20.2 L 1201.8 20.2 L 1201.8 207.9 L 995.4 207.9 Z M 995.4 20.2 "></path></clipPath><g clip-path="url(#clip0x7f9bd10d1fd0)"><image xlink:href="353D0E73407B2683ED15E9DC8CCC2E2D.jpeg" width="599.00" height="427.00" transform="matrix(0.39, 0.00, -0.00, -0.54, 978.0, 226.0)"></image></g></g></g></g><g><clipPath id="clip0x7f9bc8ec1c00"><path d="M 226.5 207.9 L 407.2 207.9 L 407.2 20.2 L 226.5 20.2 Z M 226.5 207.9 "></path></clipPath><g clip-path="url(#clip0x7f9bc8ec1c00)"><g><clipPath id="clip0x7f9bc8a27f40"><path d="M 226.5 20.2 L 407.2 20.2 L 407.2 207.9 L 226.5 207.9 Z M 226.5 20.2 "></path></clipPath><g clip-path="url(#clip0x7f9bc8a27f40)"><image xlink:href="CA531232335ED853347A673757D2DF76.jpeg" width="599.00" height="547.00" transform="matrix(0.30, 0.00, -0.00, -0.35, 226.5, 207.9)"></image></g></g></g></g><g><clipPath id="clip0x7f9bc55c2cc0"><path d="M 601.9 207.9 L 794.0 207.9 L 794.0 20.2 L 601.9 20.2 Z M 601.9 207.9 "></path></clipPath><g clip-path="url(#clip0x7f9bc55c2cc0)"><g><clipPath id="clip0x7f9bd16a4200"><path d="M 601.9 20.2 L 794.0 20.2 L 794.0 207.9 L 601.9 207.9 Z M 601.9 20.2 "></path></clipPath><g clip-path="url(#clip0x7f9bd16a4200)"><image xlink:href="8CC589C1D7A58C2C861735E0985D3AC7.jpeg" width="599.00" height="415.00" transform="matrix(0.58, 0.00, -0.00, -0.58, 522.8, 230.6)"></image></g></g></g></g><g><clipPath id="clip0x7f9bd15721e0"><path d="M 792.6 207.9 L 998.9 207.9 L 998.9 20.2 L 792.6 20.2 Z M 792.6 207.9 "></path></clipPath><g clip-path="url(#clip0x7f9bd15721e0)"><g><clipPath id="clip0x7f9bc93c1b80"><path d="M 792.6 20.2 L 998.9 20.2 L 998.9 207.9 L 792.6 207.9 Z M 792.6 20.2 "></path></clipPath><g clip-path="url(#clip0x7f9bc93c1b80)"><image xlink:href="A93088DD893528A170E60AF0A5F43661.jpeg" width="599.00" height="423.00" transform="matrix(0.48, 0.00, -0.00, -0.64, 745.1, 245.0)"></image></g></g></g></g><image xlink:href="92D1E939625027D0579E4080278E5378.png" width="1217.00" height="225.00" transform="matrix(1.00, 0.00, -0.00, 1.00, 1.3, 1.1)"></image></g></svg>