<?xml version="1.0" encoding="UTF-8" standalone="no"?><svg xmlns="http://www.w3.org/2000/svg" xmlns:xlink="http://www.w3.org/1999/xlink" clip-rule="evenodd" stroke-miterlimit="10" viewBox="0 0 607 189"><desc>SVG generated by Keynote</desc><defs></defs><g transform="matrix(1.00, 0.00, -0.00, -1.00, 0.0, 189.0)"><image xlink:href="D21FE4757DEF9D3E5DF98C95385E28B7.png" width="304.00" height="73.00" transform="matrix(1.00, 0.00, -0.00, -1.00, 152.0, 187.0)"></image><text xml:space="preserve" font-family="HoeflerText-Regular,Hoefler Text" font-size="94.0" fill="#BCAF8F" transform="matrix(1.00, 0.00, -0.00, -1.00, 153.6, 116.7)">W</text><text xml:space="preserve" font-family="HoeflerText-Regular,Hoefler Text" font-size="94.0" fill="#BCAF8F" transform="matrix(1.00, 0.00, -0.00, -1.00, 259.2, 116.7)">h</text><text xml:space="preserve" font-family="HoeflerText-Regular,Hoefler Text" font-size="94.0" fill="#BCAF8F" transform="matrix(1.00, 0.00, -0.00, -1.00, 311.3, 116.7)">a</text><text xml:space="preserve" font-family="HoeflerText-Regular,Hoefler Text" font-size="94.0" fill="#BCAF8F" transform="matrix(1.00, 0.00, -0.00, -1.00, 353.2, 116.7)">t</text><text xml:space="preserve" font-family="HoeflerText-Regular,Hoefler Text" font-size="94.0" fill="#BCAF8F" transform="matrix(1.00, 0.00, -0.00, -1.00, 387.9, 116.7)"> </text><text xml:space="preserve" font-family="HoeflerText-Regular,Hoefler Text" font-size="94.0" fill="#BCAF8F" transform="matrix(1.00, 0.00, -0.00, -1.00, 411.4, 116.7)">a</text><text xml:space="preserve" font-family="HoeflerText-Regular,Hoefler Text" font-size="94.0" fill="#BCAF8F" transform="matrix(1.00, 0.00, -0.00, -1.00, 453.4, 116.7)"> </text><image xlink:href="35316E48BBE547A5A15B7606A540EB56.png" width="603.00" height="73.00" transform="matrix(1.00, 0.00, -0.00, -1.00, 2.0, 74.0)"></image><g><clipPath id="clip0x7f9bc8dc9b50"><path d="M 0.0 0.0 L 607.0 0.0 L 607.0 189.0 L 0.0 189.0 Z M 0.0 0.0 "></path></clipPath><g clip-path="url(#clip0x7f9bc8dc9b50)"><text xml:space="preserve" font-family="HoeflerText-Regular,Hoefler Text" font-size="94.0" fill="#BCAF8F" transform="matrix(1.00, 0.00, -0.00, -1.00, 2.6, 3.7)">b</text><text xml:space="preserve" font-family="HoeflerText-Regular,Hoefler Text" font-size="94.0" fill="#BCAF8F" transform="matrix(1.00, 0.00, -0.00, -1.00, 54.1, 3.7)">e</text><text xml:space="preserve" font-family="HoeflerText-Regular,Hoefler Text" font-size="94.0" fill="#BCAF8F" transform="matrix(1.00, 0.00, -0.00, -1.00, 98.1, 3.7)">a</text><text xml:space="preserve" font-family="HoeflerText-Regular,Hoefler Text" font-size="94.0" fill="#BCAF8F" transform="matrix(1.00, 0.00, -0.00, -1.00, 140.0, 3.7)">u</text><text xml:space="preserve" font-family="HoeflerText-Regular,Hoefler Text" font-size="94.0" fill="#BCAF8F" transform="matrix(1.00, 0.00, -0.00, -1.00, 189.2, 3.7)">t</text><text xml:space="preserve" font-family="HoeflerText-Regular,Hoefler Text" font-size="94.0" fill="#BCAF8F" transform="matrix(1.00, 0.00, -0.00, -1.00, 223.9, 3.7)">i</text><text xml:space="preserve" font-family="HoeflerText-Regular,Hoefler Text" font-size="94.0" fill="#BCAF8F" transform="matrix(1.00, 0.00, -0.00, -1.00, 250.2, 3.7)">f</text><text xml:space="preserve" font-family="HoeflerText-Regular,Hoefler Text" font-size="94.0" fill="#BCAF8F" transform="matrix(1.00, 0.00, -0.00, -1.00, 281.7, 3.7)">u</text><text xml:space="preserve" font-family="HoeflerText-Regular,Hoefler Text" font-size="94.0" fill="#BCAF8F" transform="matrix(1.00, 0.00, -0.00, -1.00, 330.8, 3.7)">l</text><text xml:space="preserve" font-family="HoeflerText-Regular,Hoefler Text" font-size="94.0" fill="#BCAF8F" transform="matrix(1.00, 0.00, -0.00, -1.00, 355.2, 3.7)"> </text><text xml:space="preserve" font-family="HoeflerText-Regular,Hoefler Text" font-size="94.0" fill="#BCAF8F" transform="matrix(1.00, 0.00, -0.00, -1.00, 378.7, 3.7)">w</text><text xml:space="preserve" font-family="HoeflerText-Regular,Hoefler Text" font-size="94.0" fill="#BCAF8F" transform="matrix(1.00, 0.00, -0.00, -1.00, 443.7, 3.7)">o</text><text xml:space="preserve" font-family="HoeflerText-Regular,Hoefler Text" font-size="94.0" fill="#BCAF8F" transform="matrix(1.00, 0.00, -0.00, -1.00, 494.1, 3.7)">r</text><text xml:space="preserve" font-family="HoeflerText-Regular,Hoefler Text" font-size="94.0" fill="#BCAF8F" transform="matrix(1.00, 0.00, -0.00, -1.00, 529.1, 3.7)">l</text><text xml:space="preserve" font-family="HoeflerText-Regular,Hoefler Text" font-size="94.0" fill="#BCAF8F" transform="matrix(1.00, 0.00, -0.00, -1.00, 553.4, 3.7)">d</text><text xml:space="preserve" font-family="HoeflerText-Regular,Hoefler Text" font-size="94.0" fill="#BCAF8F" transform="matrix(1.00, 0.00, -0.00, -1.00, 604.4, 3.7)"> </text></g></g></g></svg>