<?xml version="1.0" encoding="UTF-8" standalone="no"?><svg xmlns="http://www.w3.org/2000/svg" xmlns:xlink="http://www.w3.org/1999/xlink" clip-rule="evenodd" stroke-miterlimit="10" viewBox="0 0 443 45"><desc>SVG generated by Keynote</desc><defs></defs><g transform="matrix(1.00, 0.00, -0.00, -1.00, 0.0, 45.0)"><image xlink:href="7484BF95B7A901FF493D52579746A6F6.png" width="440.00" height="43.00" transform="matrix(1.00, 0.00, -0.00, -1.00, 2.0, 44.0)"></image><text xml:space="preserve" font-family="HoeflerText-Italic,Hoefler Text" font-style="italic" font-size="50.0" fill="#86837F" transform="matrix(1.00, 0.00, -0.00, -1.00, 4.5, 6.0)">I</text><text xml:space="preserve" font-family="HoeflerText-Italic,Hoefler Text" font-style="italic" font-size="50.0" fill="#86837F" transform="matrix(1.00, 0.00, -0.00, -1.00, 26.0, 6.0)"> </text><text xml:space="preserve" font-family="HoeflerText-Italic,Hoefler Text" font-style="italic" font-size="50.0" fill="#86837F" transform="matrix(1.00, 0.00, -0.00, -1.00, 36.3, 6.0)">w</text><text xml:space="preserve" font-family="HoeflerText-Italic,Hoefler Text" font-style="italic" font-size="50.0" fill="#86837F" transform="matrix(1.00, 0.00, -0.00, -1.00, 74.1, 6.0)">a</text><text xml:space="preserve" font-family="HoeflerText-Italic,Hoefler Text" font-style="italic" font-size="50.0" fill="#86837F" transform="matrix(1.00, 0.00, -0.00, -1.00, 97.3, 6.0)">n</text><text xml:space="preserve" font-family="HoeflerText-Italic,Hoefler Text" font-style="italic" font-size="50.0" fill="#86837F" transform="matrix(1.00, 0.00, -0.00, -1.00, 121.3, 6.0)">n</text><text xml:space="preserve" font-family="HoeflerText-Italic,Hoefler Text" font-style="italic" font-size="50.0" fill="#86837F" transform="matrix(1.00, 0.00, -0.00, -1.00, 145.3, 6.0)">a</text><text xml:space="preserve" font-family="HoeflerText-Italic,Hoefler Text" font-style="italic" font-size="50.0" fill="#86837F" transform="matrix(1.00, 0.00, -0.00, -1.00, 168.5, 6.0)"> </text><text xml:space="preserve" font-family="HoeflerText-Italic,Hoefler Text" font-style="italic" font-size="50.0" fill="#86837F" transform="matrix(1.00, 0.00, -0.00, -1.00, 178.7, 6.0)">m</text><text xml:space="preserve" font-family="HoeflerText-Italic,Hoefler Text" font-style="italic" font-size="50.0" fill="#86837F" transform="matrix(1.00, 0.00, -0.00, -1.00, 214.8, 6.0)">a</text><text xml:space="preserve" font-family="HoeflerText-Italic,Hoefler Text" font-style="italic" font-size="50.0" fill="#86837F" transform="matrix(1.00, 0.00, -0.00, -1.00, 238.0, 6.0)">k</text><text xml:space="preserve" font-family="HoeflerText-Italic,Hoefler Text" font-style="italic" font-size="50.0" fill="#86837F" transform="matrix(1.00, 0.00, -0.00, -1.00, 261.5, 6.0)">e</text><text xml:space="preserve" font-family="HoeflerText-Italic,Hoefler Text" font-style="italic" font-size="50.0" fill="#86837F" transform="matrix(1.00, 0.00, -0.00, -1.00, 279.2, 6.0)"> </text><text xml:space="preserve" font-family="HoeflerText-Italic,Hoefler Text" font-style="italic" font-size="50.0" fill="#86837F" transform="matrix(1.00, 0.00, -0.00, -1.00, 289.5, 6.0)">i</text><text xml:space="preserve" font-family="HoeflerText-Italic,Hoefler Text" font-style="italic" font-size="50.0" fill="#86837F" transform="matrix(1.00, 0.00, -0.00, -1.00, 303.8, 6.0)">t</text><text xml:space="preserve" font-family="HoeflerText-Italic,Hoefler Text" font-style="italic" font-size="50.0" fill="#86837F" transform="matrix(1.00, 0.00, -0.00, -1.00, 319.6, 6.0)"> </text><text xml:space="preserve" font-family="HoeflerText-Italic,Hoefler Text" font-style="italic" font-size="50.0" fill="#86837F" transform="matrix(1.00, 0.00, -0.00, -1.00, 329.8, 6.0)">b</text><text xml:space="preserve" font-family="HoeflerText-Italic,Hoefler Text" font-style="italic" font-size="50.0" fill="#86837F" transform="matrix(1.00, 0.00, -0.00, -1.00, 352.3, 6.0)">e</text><text xml:space="preserve" font-family="HoeflerText-Italic,Hoefler Text" font-style="italic" font-size="50.0" fill="#86837F" transform="matrix(1.00, 0.00, -0.00, -1.00, 370.0, 6.0)">t</text><text xml:space="preserve" font-family="HoeflerText-Italic,Hoefler Text" font-style="italic" font-size="50.0" fill="#86837F" transform="matrix(1.00, 0.00, -0.00, -1.00, 385.8, 6.0)">t</text><text xml:space="preserve" font-family="HoeflerText-Italic,Hoefler Text" font-style="italic" font-size="50.0" fill="#86837F" transform="matrix(1.00, 0.00, -0.00, -1.00, 401.6, 6.0)">e</text><text xml:space="preserve" font-family="HoeflerText-Italic,Hoefler Text" font-style="italic" font-size="50.0" fill="#86837F" transform="matrix(1.00, 0.00, -0.00, -1.00, 419.3, 6.0)">r</text></g></svg>