<?xml version="1.0" encoding="UTF-8" standalone="no"?><svg xmlns="http://www.w3.org/2000/svg" xmlns:xlink="http://www.w3.org/1999/xlink" clip-rule="evenodd" stroke-miterlimit="10" viewBox="0 0 1920 1080"><desc>SVG generated by Keynote</desc><defs></defs><g transform="matrix(1.00, 0.00, -0.00, -1.00, 0.0, 1080.0)"><g><clipPath id="clip0x7f9bd115f7b0"><path d="M 0.0 1080.0 L 1920.0 1080.0 L 1920.0 0.0 L 0.0 0.0 Z M 0.0 1080.0 "></path></clipPath><g clip-path="url(#clip0x7f9bd115f7b0)"><image xlink:href="../../0945013D-D886-4712-A234-9A6E92E170DF/assets/24584E29FD93C618362A25C0DD149F1A.jpeg" width="2048.00" height="1536.00" transform="matrix(0.94, 0.00, -0.00, -0.70, 0.0, 1080.0)"></image></g></g><g><clipPath id="clip0x7f9bc8b17020"><path d="M 1023.0 890.0 L 1547.0 890.0 L 1547.0 191.0 L 1023.0 191.0 Z M 1022.9 890.2 "></path></clipPath><g clip-path="url(#clip0x7f9bc8b17020)"><image xlink:href="../../326B0D86-5D0F-495F-A076-302B581B7587/assets/21D09BFBA779CCAD0B4BB1A66D4578E2.jpeg" width="640.00" height="960.00" transform="matrix(0.82, 0.00, -0.00, -0.82, 1022.9, 933.8)"></image></g></g><image xlink:href="../../326B0D86-5D0F-495F-A076-302B581B7587/assets/CA2BA4C2D5A65AD599CD2E7A04F15299.png" width="576.00" height="753.00" transform="matrix(1.00, 0.00, -0.00, 1.00, 996.9, 165.3)"></image><image xlink:href="../../326B0D86-5D0F-495F-A076-302B581B7587/assets/D21FE4757DEF9D3E5DF98C95385E28B7.png" width="304.00" height="73.00" transform="matrix(1.00, 0.00, -0.00, -1.00, 509.0, 724.0)"></image><text xml:space="preserve" font-family="HoeflerText-Regular,Hoefler Text" font-size="94.0" fill="#BCAF8F" transform="matrix(1.00, 0.00, -0.00, -1.00, 510.6, 653.7)">W</text><text xml:space="preserve" font-family="HoeflerText-Regular,Hoefler Text" font-size="94.0" fill="#BCAF8F" transform="matrix(1.00, 0.00, -0.00, -1.00, 616.2, 653.7)">h</text><text xml:space="preserve" font-family="HoeflerText-Regular,Hoefler Text" font-size="94.0" fill="#BCAF8F" transform="matrix(1.00, 0.00, -0.00, -1.00, 668.3, 653.7)">a</text><text xml:space="preserve" font-family="HoeflerText-Regular,Hoefler Text" font-size="94.0" fill="#BCAF8F" transform="matrix(1.00, 0.00, -0.00, -1.00, 710.2, 653.7)">t</text><text xml:space="preserve" font-family="HoeflerText-Regular,Hoefler Text" font-size="94.0" fill="#BCAF8F" transform="matrix(1.00, 0.00, -0.00, -1.00, 744.9, 653.7)"> </text><text xml:space="preserve" font-family="HoeflerText-Regular,Hoefler Text" font-size="94.0" fill="#BCAF8F" transform="matrix(1.00, 0.00, -0.00, -1.00, 768.4, 653.7)">a</text><text xml:space="preserve" font-family="HoeflerText-Regular,Hoefler Text" font-size="94.0" fill="#BCAF8F" transform="matrix(1.00, 0.00, -0.00, -1.00, 810.4, 653.7)"> </text><image xlink:href="../../326B0D86-5D0F-495F-A076-302B581B7587/assets/35316E48BBE547A5A15B7606A540EB56.png" width="603.00" height="73.00" transform="matrix(1.00, 0.00, -0.00, -1.00, 359.0, 611.0)"></image><g><clipPath id="clip0x7f9bd04d2980"><path d="M 306.9 514.7 L 1014.0 514.7 L 1014.0 773.4 L 306.9 773.4 Z M 306.9 514.7 "></path></clipPath><g clip-path="url(#clip0x7f9bd04d2980)"><text xml:space="preserve" font-family="HoeflerText-Regular,Hoefler Text" font-size="94.0" fill="#BCAF8F" transform="matrix(1.00, 0.00, -0.00, -1.00, 359.6, 540.7)">b</text><text xml:space="preserve" font-family="HoeflerText-Regular,Hoefler Text" font-size="94.0" fill="#BCAF8F" transform="matrix(1.00, 0.00, -0.00, -1.00, 411.1, 540.7)">e</text><text xml:space="preserve" font-family="HoeflerText-Regular,Hoefler Text" font-size="94.0" fill="#BCAF8F" transform="matrix(1.00, 0.00, -0.00, -1.00, 455.1, 540.7)">a</text><text xml:space="preserve" font-family="HoeflerText-Regular,Hoefler Text" font-size="94.0" fill="#BCAF8F" transform="matrix(1.00, 0.00, -0.00, -1.00, 497.0, 540.7)">u</text><text xml:space="preserve" font-family="HoeflerText-Regular,Hoefler Text" font-size="94.0" fill="#BCAF8F" transform="matrix(1.00, 0.00, -0.00, -1.00, 546.2, 540.7)">t</text><text xml:space="preserve" font-family="HoeflerText-Regular,Hoefler Text" font-size="94.0" fill="#BCAF8F" transform="matrix(1.00, 0.00, -0.00, -1.00, 580.9, 540.7)">i</text><text xml:space="preserve" font-family="HoeflerText-Regular,Hoefler Text" font-size="94.0" fill="#BCAF8F" transform="matrix(1.00, 0.00, -0.00, -1.00, 607.2, 540.7)">f</text><text xml:space="preserve" font-family="HoeflerText-Regular,Hoefler Text" font-size="94.0" fill="#BCAF8F" transform="matrix(1.00, 0.00, -0.00, -1.00, 638.7, 540.7)">u</text><text xml:space="preserve" font-family="HoeflerText-Regular,Hoefler Text" font-size="94.0" fill="#BCAF8F" transform="matrix(1.00, 0.00, -0.00, -1.00, 687.8, 540.7)">l</text><text xml:space="preserve" font-family="HoeflerText-Regular,Hoefler Text" font-size="94.0" fill="#BCAF8F" transform="matrix(1.00, 0.00, -0.00, -1.00, 712.2, 540.7)"> </text><text xml:space="preserve" font-family="HoeflerText-Regular,Hoefler Text" font-size="94.0" fill="#BCAF8F" transform="matrix(1.00, 0.00, -0.00, -1.00, 735.7, 540.7)">w</text><text xml:space="preserve" font-family="HoeflerText-Regular,Hoefler Text" font-size="94.0" fill="#BCAF8F" transform="matrix(1.00, 0.00, -0.00, -1.00, 800.7, 540.7)">o</text><text xml:space="preserve" font-family="HoeflerText-Regular,Hoefler Text" font-size="94.0" fill="#BCAF8F" transform="matrix(1.00, 0.00, -0.00, -1.00, 851.1, 540.7)">r</text><text xml:space="preserve" font-family="HoeflerText-Regular,Hoefler Text" font-size="94.0" fill="#BCAF8F" transform="matrix(1.00, 0.00, -0.00, -1.00, 886.1, 540.7)">l</text><text xml:space="preserve" font-family="HoeflerText-Regular,Hoefler Text" font-size="94.0" fill="#BCAF8F" transform="matrix(1.00, 0.00, -0.00, -1.00, 910.4, 540.7)">d</text><text xml:space="preserve" font-family="HoeflerText-Regular,Hoefler Text" font-size="94.0" fill="#BCAF8F" transform="matrix(1.00, 0.00, -0.00, -1.00, 961.4, 540.7)"> </text></g></g><image xlink:href="../../326B0D86-5D0F-495F-A076-302B581B7587/assets/3C51C6F02C497F5B8A9C4648ABDD1EE1.png" width="425.00" height="56.00" transform="matrix(1.00, 0.00, -0.00, -1.00, 449.0, 494.0)"></image><text xml:space="preserve" font-family="HoeflerText-Italic,Hoefler Text" font-style="italic" font-size="50.0" fill="#86837F" transform="matrix(1.00, 0.00, -0.00, -1.00, 451.4, 456.0)">I</text><text xml:space="preserve" font-family="HoeflerText-Italic,Hoefler Text" font-style="italic" font-size="50.0" fill="#86837F" transform="matrix(1.00, 0.00, -0.00, -1.00, 472.9, 456.0)"> </text><text xml:space="preserve" font-family="HoeflerText-Italic,Hoefler Text" font-style="italic" font-size="50.0" fill="#86837F" transform="matrix(1.00, 0.00, -0.00, -1.00, 483.2, 456.0)">w</text><text xml:space="preserve" font-family="HoeflerText-Italic,Hoefler Text" font-style="italic" font-size="50.0" fill="#86837F" transform="matrix(1.00, 0.00, -0.00, -1.00, 521.0, 456.0)">a</text><text xml:space="preserve" font-family="HoeflerText-Italic,Hoefler Text" font-style="italic" font-size="50.0" fill="#86837F" transform="matrix(1.00, 0.00, -0.00, -1.00, 544.2, 456.0)">n</text><text xml:space="preserve" font-family="HoeflerText-Italic,Hoefler Text" font-style="italic" font-size="50.0" fill="#86837F" transform="matrix(1.00, 0.00, -0.00, -1.00, 568.2, 456.0)">n</text><text xml:space="preserve" font-family="HoeflerText-Italic,Hoefler Text" font-style="italic" font-size="50.0" fill="#86837F" transform="matrix(1.00, 0.00, -0.00, -1.00, 592.2, 456.0)">a</text><text xml:space="preserve" font-family="HoeflerText-Italic,Hoefler Text" font-style="italic" font-size="50.0" fill="#86837F" transform="matrix(1.00, 0.00, -0.00, -1.00, 615.4, 456.0)"> </text><text xml:space="preserve" font-family="HoeflerText-Italic,Hoefler Text" font-style="italic" font-size="50.0" fill="#86837F" transform="matrix(1.00, 0.00, -0.00, -1.00, 625.6, 456.0)">d</text><text xml:space="preserve" font-family="HoeflerText-Italic,Hoefler Text" font-style="italic" font-size="50.0" fill="#86837F" transform="matrix(1.00, 0.00, -0.00, -1.00, 649.5, 456.0)">o</text><text xml:space="preserve" font-family="HoeflerText-Italic,Hoefler Text" font-style="italic" font-size="50.0" fill="#86837F" transform="matrix(1.00, 0.00, -0.00, -1.00, 670.4, 456.0)"> </text><text xml:space="preserve" font-family="HoeflerText-Italic,Hoefler Text" font-style="italic" font-size="50.0" fill="#86837F" transform="matrix(1.00, 0.00, -0.00, -1.00, 680.6, 456.0)">s</text><text xml:space="preserve" font-family="HoeflerText-Italic,Hoefler Text" font-style="italic" font-size="50.0" fill="#86837F" transform="matrix(1.00, 0.00, -0.00, -1.00, 695.4, 456.0)">o</text><text xml:space="preserve" font-family="HoeflerText-Italic,Hoefler Text" font-style="italic" font-size="50.0" fill="#86837F" transform="matrix(1.00, 0.00, -0.00, -1.00, 716.3, 456.0)">m</text><text xml:space="preserve" font-family="HoeflerText-Italic,Hoefler Text" font-style="italic" font-size="50.0" fill="#86837F" transform="matrix(1.00, 0.00, -0.00, -1.00, 752.4, 456.0)">e</text><text xml:space="preserve" font-family="HoeflerText-Italic,Hoefler Text" font-style="italic" font-size="50.0" fill="#86837F" transform="matrix(1.00, 0.00, -0.00, -1.00, 770.1, 456.0)">t</text><text xml:space="preserve" font-family="HoeflerText-Italic,Hoefler Text" font-style="italic" font-size="50.0" fill="#86837F" transform="matrix(1.00, 0.00, -0.00, -1.00, 785.9, 456.0)">h</text><text xml:space="preserve" font-family="HoeflerText-Italic,Hoefler Text" font-style="italic" font-size="50.0" fill="#86837F" transform="matrix(1.00, 0.00, -0.00, -1.00, 810.5, 456.0)">i</text><text xml:space="preserve" font-family="HoeflerText-Italic,Hoefler Text" font-style="italic" font-size="50.0" fill="#86837F" transform="matrix(1.00, 0.00, -0.00, -1.00, 824.8, 456.0)">n</text><text xml:space="preserve" font-family="HoeflerText-Italic,Hoefler Text" font-style="italic" font-size="50.0" fill="#86837F" transform="matrix(1.00, 0.00, -0.00, -1.00, 848.8, 456.0)">g</text><image xlink:href="../../326B0D86-5D0F-495F-A076-302B581B7587/assets/3E483B8F6C0AF7732AB77B698664FF9F.png" width="583.00" height="56.00" transform="matrix(1.00, 0.00, -0.00, -1.00, 371.0, 422.0)"></image><text xml:space="preserve" font-family="HoeflerText-Italic,Hoefler Text" font-style="italic" font-size="50.0" fill="#86837F" transform="matrix(1.00, 0.00, -0.00, -1.00, 373.6, 384.0)">I</text><text xml:space="preserve" font-family="HoeflerText-Italic,Hoefler Text" font-style="italic" font-size="50.0" fill="#86837F" transform="matrix(1.00, 0.00, -0.00, -1.00, 395.2, 384.0)"> </text><text xml:space="preserve" font-family="HoeflerText-Italic,Hoefler Text" font-style="italic" font-size="50.0" fill="#86837F" transform="matrix(1.00, 0.00, -0.00, -1.00, 405.4, 384.0)">w</text><text xml:space="preserve" font-family="HoeflerText-Italic,Hoefler Text" font-style="italic" font-size="50.0" fill="#86837F" transform="matrix(1.00, 0.00, -0.00, -1.00, 443.2, 384.0)">a</text><text xml:space="preserve" font-family="HoeflerText-Italic,Hoefler Text" font-style="italic" font-size="50.0" fill="#86837F" transform="matrix(1.00, 0.00, -0.00, -1.00, 466.4, 384.0)">n</text><text xml:space="preserve" font-family="HoeflerText-Italic,Hoefler Text" font-style="italic" font-size="50.0" fill="#86837F" transform="matrix(1.00, 0.00, -0.00, -1.00, 490.4, 384.0)">n</text><text xml:space="preserve" font-family="HoeflerText-Italic,Hoefler Text" font-style="italic" font-size="50.0" fill="#86837F" transform="matrix(1.00, 0.00, -0.00, -1.00, 514.4, 384.0)">a</text><text xml:space="preserve" font-family="HoeflerText-Italic,Hoefler Text" font-style="italic" font-size="50.0" fill="#86837F" transform="matrix(1.00, 0.00, -0.00, -1.00, 537.6, 384.0)"> </text><text xml:space="preserve" font-family="HoeflerText-Italic,Hoefler Text" font-style="italic" font-size="50.0" fill="#86837F" transform="matrix(1.00, 0.00, -0.00, -1.00, 547.9, 384.0)">p</text><text xml:space="preserve" font-family="HoeflerText-Italic,Hoefler Text" font-style="italic" font-size="50.0" fill="#86837F" transform="matrix(1.00, 0.00, -0.00, -1.00, 570.8, 384.0)">u</text><text xml:space="preserve" font-family="HoeflerText-Italic,Hoefler Text" font-style="italic" font-size="50.0" fill="#86837F" transform="matrix(1.00, 0.00, -0.00, -1.00, 595.3, 384.0)">s</text><text xml:space="preserve" font-family="HoeflerText-Italic,Hoefler Text" font-style="italic" font-size="50.0" fill="#86837F" transform="matrix(1.00, 0.00, -0.00, -1.00, 610.1, 384.0)">h</text><text xml:space="preserve" font-family="HoeflerText-Italic,Hoefler Text" font-style="italic" font-size="50.0" fill="#86837F" transform="matrix(1.00, 0.00, -0.00, -1.00, 634.7, 384.0)"> </text><text xml:space="preserve" font-family="HoeflerText-Italic,Hoefler Text" font-style="italic" font-size="50.0" fill="#86837F" transform="matrix(1.00, 0.00, -0.00, -1.00, 645.0, 384.0)">h</text><text xml:space="preserve" font-family="HoeflerText-Italic,Hoefler Text" font-style="italic" font-size="50.0" fill="#86837F" transform="matrix(1.00, 0.00, -0.00, -1.00, 669.6, 384.0)">u</text><text xml:space="preserve" font-family="HoeflerText-Italic,Hoefler Text" font-style="italic" font-size="50.0" fill="#86837F" transform="matrix(1.00, 0.00, -0.00, -1.00, 694.1, 384.0)">m</text><text xml:space="preserve" font-family="HoeflerText-Italic,Hoefler Text" font-style="italic" font-size="50.0" fill="#86837F" transform="matrix(1.00, 0.00, -0.00, -1.00, 730.2, 384.0)">a</text><text xml:space="preserve" font-family="HoeflerText-Italic,Hoefler Text" font-style="italic" font-size="50.0" fill="#86837F" transform="matrix(1.00, 0.00, -0.00, -1.00, 753.4, 384.0)">n</text><text xml:space="preserve" font-family="HoeflerText-Italic,Hoefler Text" font-style="italic" font-size="50.0" fill="#86837F" transform="matrix(1.00, 0.00, -0.00, -1.00, 777.4, 384.0)"> </text><text xml:space="preserve" font-family="HoeflerText-Italic,Hoefler Text" font-style="italic" font-size="50.0" fill="#86837F" transform="matrix(1.00, 0.00, -0.00, -1.00, 787.6, 384.0)">f</text><text xml:space="preserve" font-family="HoeflerText-Italic,Hoefler Text" font-style="italic" font-size="50.0" fill="#86837F" transform="matrix(1.00, 0.00, -0.00, -1.00, 803.4, 384.0)">o</text><text xml:space="preserve" font-family="HoeflerText-Italic,Hoefler Text" font-style="italic" font-size="50.0" fill="#86837F" transform="matrix(1.00, 0.00, -0.00, -1.00, 824.2, 384.0)">r</text><text xml:space="preserve" font-family="HoeflerText-Italic,Hoefler Text" font-style="italic" font-size="50.0" fill="#86837F" transform="matrix(1.00, 0.00, -0.00, -1.00, 844.3, 384.0)">w</text><text xml:space="preserve" font-family="HoeflerText-Italic,Hoefler Text" font-style="italic" font-size="50.0" fill="#86837F" transform="matrix(1.00, 0.00, -0.00, -1.00, 882.1, 384.0)">a</text><text xml:space="preserve" font-family="HoeflerText-Italic,Hoefler Text" font-style="italic" font-size="50.0" fill="#86837F" transform="matrix(1.00, 0.00, -0.00, -1.00, 905.3, 384.0)">r</text><text xml:space="preserve" font-family="HoeflerText-Italic,Hoefler Text" font-style="italic" font-size="50.0" fill="#86837F" transform="matrix(1.00, 0.00, -0.00, -1.00, 923.4, 384.0)">d</text><image xlink:href="../../326B0D86-5D0F-495F-A076-302B581B7587/assets/7484BF95B7A901FF493D52579746A6F6.png" width="440.00" height="43.00" transform="matrix(1.00, 0.00, -0.00, -1.00, 441.0, 350.0)"></image><text xml:space="preserve" font-family="HoeflerText-Italic,Hoefler Text" font-style="italic" font-size="50.0" fill="#86837F" transform="matrix(1.00, 0.00, -0.00, -1.00, 443.5, 312.0)">I</text><text xml:space="preserve" font-family="HoeflerText-Italic,Hoefler Text" font-style="italic" font-size="50.0" fill="#86837F" transform="matrix(1.00, 0.00, -0.00, -1.00, 465.0, 312.0)"> </text><text xml:space="preserve" font-family="HoeflerText-Italic,Hoefler Text" font-style="italic" font-size="50.0" fill="#86837F" transform="matrix(1.00, 0.00, -0.00, -1.00, 475.3, 312.0)">w</text><text xml:space="preserve" font-family="HoeflerText-Italic,Hoefler Text" font-style="italic" font-size="50.0" fill="#86837F" transform="matrix(1.00, 0.00, -0.00, -1.00, 513.1, 312.0)">a</text><text xml:space="preserve" font-family="HoeflerText-Italic,Hoefler Text" font-style="italic" font-size="50.0" fill="#86837F" transform="matrix(1.00, 0.00, -0.00, -1.00, 536.3, 312.0)">n</text><text xml:space="preserve" font-family="HoeflerText-Italic,Hoefler Text" font-style="italic" font-size="50.0" fill="#86837F" transform="matrix(1.00, 0.00, -0.00, -1.00, 560.3, 312.0)">n</text><text xml:space="preserve" font-family="HoeflerText-Italic,Hoefler Text" font-style="italic" font-size="50.0" fill="#86837F" transform="matrix(1.00, 0.00, -0.00, -1.00, 584.3, 312.0)">a</text><text xml:space="preserve" font-family="HoeflerText-Italic,Hoefler Text" font-style="italic" font-size="50.0" fill="#86837F" transform="matrix(1.00, 0.00, -0.00, -1.00, 607.5, 312.0)"> </text><text xml:space="preserve" font-family="HoeflerText-Italic,Hoefler Text" font-style="italic" font-size="50.0" fill="#86837F" transform="matrix(1.00, 0.00, -0.00, -1.00, 617.7, 312.0)">m</text><text xml:space="preserve" font-family="HoeflerText-Italic,Hoefler Text" font-style="italic" font-size="50.0" fill="#86837F" transform="matrix(1.00, 0.00, -0.00, -1.00, 653.8, 312.0)">a</text><text xml:space="preserve" font-family="HoeflerText-Italic,Hoefler Text" font-style="italic" font-size="50.0" fill="#86837F" transform="matrix(1.00, 0.00, -0.00, -1.00, 677.0, 312.0)">k</text><text xml:space="preserve" font-family="HoeflerText-Italic,Hoefler Text" font-style="italic" font-size="50.0" fill="#86837F" transform="matrix(1.00, 0.00, -0.00, -1.00, 700.5, 312.0)">e</text><text xml:space="preserve" font-family="HoeflerText-Italic,Hoefler Text" font-style="italic" font-size="50.0" fill="#86837F" transform="matrix(1.00, 0.00, -0.00, -1.00, 718.2, 312.0)"> </text><text xml:space="preserve" font-family="HoeflerText-Italic,Hoefler Text" font-style="italic" font-size="50.0" fill="#86837F" transform="matrix(1.00, 0.00, -0.00, -1.00, 728.5, 312.0)">i</text><text xml:space="preserve" font-family="HoeflerText-Italic,Hoefler Text" font-style="italic" font-size="50.0" fill="#86837F" transform="matrix(1.00, 0.00, -0.00, -1.00, 742.8, 312.0)">t</text><text xml:space="preserve" font-family="HoeflerText-Italic,Hoefler Text" font-style="italic" font-size="50.0" fill="#86837F" transform="matrix(1.00, 0.00, -0.00, -1.00, 758.6, 312.0)"> </text><text xml:space="preserve" font-family="HoeflerText-Italic,Hoefler Text" font-style="italic" font-size="50.0" fill="#86837F" transform="matrix(1.00, 0.00, -0.00, -1.00, 768.8, 312.0)">b</text><text xml:space="preserve" font-family="HoeflerText-Italic,Hoefler Text" font-style="italic" font-size="50.0" fill="#86837F" transform="matrix(1.00, 0.00, -0.00, -1.00, 791.3, 312.0)">e</text><text xml:space="preserve" font-family="HoeflerText-Italic,Hoefler Text" font-style="italic" font-size="50.0" fill="#86837F" transform="matrix(1.00, 0.00, -0.00, -1.00, 809.0, 312.0)">t</text><text xml:space="preserve" font-family="HoeflerText-Italic,Hoefler Text" font-style="italic" font-size="50.0" fill="#86837F" transform="matrix(1.00, 0.00, -0.00, -1.00, 824.8, 312.0)">t</text><text xml:space="preserve" font-family="HoeflerText-Italic,Hoefler Text" font-style="italic" font-size="50.0" fill="#86837F" transform="matrix(1.00, 0.00, -0.00, -1.00, 840.6, 312.0)">e</text><text xml:space="preserve" font-family="HoeflerText-Italic,Hoefler Text" font-style="italic" font-size="50.0" fill="#86837F" transform="matrix(1.00, 0.00, -0.00, -1.00, 858.3, 312.0)">r</text></g></svg>